/* XPM */
static char * exit0_xpm[] = {
"64 64 96 2",
"  	c #291A1E",
". 	c #D4D4D4",
"+ 	c #9E9D9D",
"@ 	c #26181C",
"# 	c #595556",
"$ 	c #828080",
"% 	c #838181",
"& 	c #E5E4E4",
"* 	c #EAE9E9",
"= 	c #CCCBCB",
"- 	c #ACABAB",
"; 	c #C8C7C8",
"> 	c #2A1A1E",
", 	c #A19FA0",
"' 	c #5A5556",
") 	c #2C1B1F",
"! 	c #B2B1B1",
"~ 	c #CBCBCB",
"{ 	c #D6D6D6",
"] 	c #B8B7B7",
"^ 	c #2A1B1F",
"/ 	c #2F1D21",
"( 	c #B1B0B0",
"_ 	c #E8E7E7",
": 	c #2A1B1E",
"< 	c #BCBABB",
"[ 	c #656061",
"} 	c #2C1C1F",
"| 	c #2B1B1F",
"1 	c #848182",
"2 	c #A8A7A7",
"3 	c #A9A7A8",
"4 	c #929091",
"5 	c #868384",
"6 	c #2D1C20",
"7 	c #CCCBCC",
"8 	c #989697",
"9 	c #F2F2F2",
"0 	c #2E1E21",
"a 	c #2D1D20",
"b 	c #B1AFB0",
"c 	c #939091",
"d 	c #321F23",
"e 	c #C5C4C4",
"f 	c #858282",
"g 	c #311F22",
"h 	c #CAC9C9",
"i 	c #B7B5B6",
"j 	c #C7C6C6",
"k 	c #28191D",
"l 	c #DFDFDF",
"m 	c #ADACAC",
"n 	c #CFCECF",
"o 	c #CBCACA",
"p 	c #BBBABA",
"q 	c #C5C4C5",
"r 	c #F7F7F7",
"s 	c #F3F2F2",
"t 	c #ACAAAA",
"u 	c #C8C7C7",
"v 	c #DEDDDD",
"w 	c #C7C6C7",
"x 	c #301E22",
"y 	c #5C5657",
"z 	c #A2A0A0",
"A 	c #BFBEBE",
"B 	c #D2D1D1",
"C 	c #BAB9BA",
"D 	c #747172",
"E 	c #939192",
"F 	c #757172",
"G 	c #949292",
"H 	c #C2C1C1",
"I 	c #B0AFAF",
"J 	c #C7C7C7",
"K 	c #A6A4A5",
"L 	c #C4C3C3",
"M 	c #767273",
"N 	c #311F23",
"O 	c #CBCACB",
"P 	c #DCDBDB",
"Q 	c #EEEDED",
"R 	c #ACAAAB",
"S 	c #747171",
"T 	c #C0BFBF",
"U 	c #C6C5C5",
"V 	c #F1F1F1",
"W 	c #26171B",
"X 	c #D1D0D0",
"Y 	c #CFCECE",
"Z 	c #29191D",
"` 	c #B5B4B4",
" .	c #DDDDDD",
"..	c #AAA7A8",
"+.	c #8D8A8A",
"@.	c #959293",
"        . . . . + + + + @ @ @ @ @ @ @ @ # # # # $ $ $ $ @ @ @ @ @ @ @ @ % % % % % % % % @ @ @ @ @ @ @ @ % % % % & & & &         ",
"        . . . . + + + + @ @ @ @ @ @ @ @ # # # # $ $ $ $ @ @ @ @ @ @ @ @ % % % % % % % % @ @ @ @ @ @ @ @ % % % % & & & &         ",
"        . . . . + + + + @ @ @ @ @ @ @ @ # # # # $ $ $ $ @ @ @ @ @ @ @ @ % % % % % % % % @ @ @ @ @ @ @ @ % % % % & & & &         ",
"        . . . . + + + + @ @ @ @ @ @ @ @ # # # # $ $ $ $ @ @ @ @ @ @ @ @ % % % % % % % % @ @ @ @ @ @ @ @ % % % % & & & &         ",
"@ @ @ @ * * * * = = = =                 - - - - ; ; ; ; > > > >         , , , , ' ' ' '         ) ) ) ) ! ! ! ! ~ ~ ~ ~ @ @ @ @ ",
"@ @ @ @ * * * * = = = =                 - - - - ; ; ; ; > > > >         , , , , ' ' ' '         ) ) ) ) ! ! ! ! ~ ~ ~ ~ @ @ @ @ ",
"@ @ @ @ * * * * = = = =                 - - - - ; ; ; ; > > > >         , , , , ' ' ' '         ) ) ) ) ! ! ! ! ~ ~ ~ ~ @ @ @ @ ",
"@ @ @ @ * * * * = = = =                 - - - - ; ; ; ; > > > >         , , , , ' ' ' '         ) ) ) ) ! ! ! ! ~ ~ ~ ~ @ @ @ @ ",
"@ @ @ @ { { { { ] ] ] ] ^ ^ ^ ^ / / / / ( ( ( ( _ _ _ _ : : : :         < < < < [ [ [ [ } } } } | | | | 1 1 1 1 1 1 1 1 @ @ @ @ ",
"@ @ @ @ { { { { ] ] ] ] ^ ^ ^ ^ / / / / ( ( ( ( _ _ _ _ : : : :         < < < < [ [ [ [ } } } } | | | | 1 1 1 1 1 1 1 1 @ @ @ @ ",
"@ @ @ @ { { { { ] ] ] ] ^ ^ ^ ^ / / / / ( ( ( ( _ _ _ _ : : : :         < < < < [ [ [ [ } } } } | | | | 1 1 1 1 1 1 1 1 @ @ @ @ ",
"@ @ @ @ { { { { ] ] ] ] ^ ^ ^ ^ / / / / ( ( ( ( _ _ _ _ : : : :         < < < < [ [ [ [ } } } } | | | | 1 1 1 1 1 1 1 1 @ @ @ @ ",
"@ @ @ @ 2 2 2 2 3 3 3 3         ^ ^ ^ ^ 4 4 4 4 5 5 5 5 | | | | 6 6 6 6 7 7 7 7 8 8 8 8 | | | | ^ ^ ^ ^ ! ! ! ! = = = = @ @ @ @ ",
"@ @ @ @ 2 2 2 2 3 3 3 3         ^ ^ ^ ^ 4 4 4 4 5 5 5 5 | | | | 6 6 6 6 7 7 7 7 8 8 8 8 | | | | ^ ^ ^ ^ ! ! ! ! = = = = @ @ @ @ ",
"@ @ @ @ 2 2 2 2 3 3 3 3         ^ ^ ^ ^ 4 4 4 4 5 5 5 5 | | | | 6 6 6 6 7 7 7 7 8 8 8 8 | | | | ^ ^ ^ ^ ! ! ! ! = = = = @ @ @ @ ",
"@ @ @ @ 2 2 2 2 3 3 3 3         ^ ^ ^ ^ 4 4 4 4 5 5 5 5 | | | | 6 6 6 6 7 7 7 7 8 8 8 8 | | | | ^ ^ ^ ^ ! ! ! ! = = = = @ @ @ @ ",
"@ @ @ @ 3 3 3 3 9 9 9 9 0 0 0 0 a a a a b b b b c c c c ) ) ) ) d d d d e e e e f f f f 0 0 0 0 g g g g h h h h i i i i @ @ @ @ ",
"@ @ @ @ 3 3 3 3 9 9 9 9 0 0 0 0 a a a a b b b b c c c c ) ) ) ) d d d d e e e e f f f f 0 0 0 0 g g g g h h h h i i i i @ @ @ @ ",
"@ @ @ @ 3 3 3 3 9 9 9 9 0 0 0 0 a a a a b b b b c c c c ) ) ) ) d d d d e e e e f f f f 0 0 0 0 g g g g h h h h i i i i @ @ @ @ ",
"@ @ @ @ 3 3 3 3 9 9 9 9 0 0 0 0 a a a a b b b b c c c c ) ) ) ) d d d d e e e e f f f f 0 0 0 0 g g g g h h h h i i i i @ @ @ @ ",
"@ @ @ @ 2 2 2 2 j j j j | | | |         e e e e 1 1 1 1 } } } } k k k k e e e e 1 1 1 1                 l l l l m m m m @ @ @ @ ",
"@ @ @ @ 2 2 2 2 j j j j | | | |         e e e e 1 1 1 1 } } } } k k k k e e e e 1 1 1 1                 l l l l m m m m @ @ @ @ ",
"@ @ @ @ 2 2 2 2 j j j j | | | |         e e e e 1 1 1 1 } } } } k k k k e e e e 1 1 1 1                 l l l l m m m m @ @ @ @ ",
"@ @ @ @ 2 2 2 2 j j j j | | | |         e e e e 1 1 1 1 } } } } k k k k e e e e 1 1 1 1                 l l l l m m m m @ @ @ @ ",
"@ @ @ @ 2 2 2 2 3 3 3 3 6 6 6 6 6 6 6 6 n n n n 1 1 1 1 ) ) ) ) ) ) ) ) o o o o p p p p } } } } 6 6 6 6 q q q q 1 1 1 1 @ @ @ @ ",
"@ @ @ @ 2 2 2 2 3 3 3 3 6 6 6 6 6 6 6 6 n n n n 1 1 1 1 ) ) ) ) ) ) ) ) o o o o p p p p } } } } 6 6 6 6 q q q q 1 1 1 1 @ @ @ @ ",
"@ @ @ @ 2 2 2 2 3 3 3 3 6 6 6 6 6 6 6 6 n n n n 1 1 1 1 ) ) ) ) ) ) ) ) o o o o p p p p } } } } 6 6 6 6 q q q q 1 1 1 1 @ @ @ @ ",
"@ @ @ @ 2 2 2 2 3 3 3 3 6 6 6 6 6 6 6 6 n n n n 1 1 1 1 ) ) ) ) ) ) ) ) o o o o p p p p } } } } 6 6 6 6 q q q q 1 1 1 1 @ @ @ @ ",
"@ @ @ @ r r r r 3 3 3 3         6 6 6 6 s s s s 1 1 1 1                 t t t t t t t t ^ ^ ^ ^ ) ) ) ) ' ' ' ' 2 2 2 2 @ @ @ @ ",
"@ @ @ @ r r r r 3 3 3 3         6 6 6 6 s s s s 1 1 1 1                 t t t t t t t t ^ ^ ^ ^ ) ) ) ) ' ' ' ' 2 2 2 2 @ @ @ @ ",
"@ @ @ @ r r r r 3 3 3 3         6 6 6 6 s s s s 1 1 1 1                 t t t t t t t t ^ ^ ^ ^ ) ) ) ) ' ' ' ' 2 2 2 2 @ @ @ @ ",
"@ @ @ @ r r r r 3 3 3 3         6 6 6 6 s s s s 1 1 1 1                 t t t t t t t t ^ ^ ^ ^ ) ) ) ) ' ' ' ' 2 2 2 2 @ @ @ @ ",
"@ @ @ @ u u u u v v v v 6 6 6 6 0 0 0 0 w w w w p p p p x x x x x x x x y y y y z z z z x x x x 0 0 0 0 p p p p A A A A @ @ @ @ ",
"@ @ @ @ u u u u v v v v 6 6 6 6 0 0 0 0 w w w w p p p p x x x x x x x x y y y y z z z z x x x x 0 0 0 0 p p p p A A A A @ @ @ @ ",
"@ @ @ @ u u u u v v v v 6 6 6 6 0 0 0 0 w w w w p p p p x x x x x x x x y y y y z z z z x x x x 0 0 0 0 p p p p A A A A @ @ @ @ ",
"@ @ @ @ u u u u v v v v 6 6 6 6 0 0 0 0 w w w w p p p p x x x x x x x x y y y y z z z z x x x x 0 0 0 0 p p p p A A A A @ @ @ @ ",
"@ @ @ @ B B B B B B B B ^ ^ ^ ^         ! ! ! ! C C C C k k k k 6 6 6 6 D D D D , , , ,         | | | | = = = = E E E E @ @ @ @ ",
"@ @ @ @ B B B B B B B B ^ ^ ^ ^         ! ! ! ! C C C C k k k k 6 6 6 6 D D D D , , , ,         | | | | = = = = E E E E @ @ @ @ ",
"@ @ @ @ B B B B B B B B ^ ^ ^ ^         ! ! ! ! C C C C k k k k 6 6 6 6 D D D D , , , ,         | | | | = = = = E E E E @ @ @ @ ",
"@ @ @ @ B B B B B B B B ^ ^ ^ ^         ! ! ! ! C C C C k k k k 6 6 6 6 D D D D , , , ,         | | | | = = = = E E E E @ @ @ @ ",
"@ @ @ @ u u u u F F F F ^ ^ ^ ^ ^ ^ ^ ^ G G G G p p p p ) ) ) ) ^ ^ ^ ^ H H H H p p p p } } } } 6 6 6 6 1 1 1 1 I I I I @ @ @ @ ",
"@ @ @ @ u u u u F F F F ^ ^ ^ ^ ^ ^ ^ ^ G G G G p p p p ) ) ) ) ^ ^ ^ ^ H H H H p p p p } } } } 6 6 6 6 1 1 1 1 I I I I @ @ @ @ ",
"@ @ @ @ u u u u F F F F ^ ^ ^ ^ ^ ^ ^ ^ G G G G p p p p ) ) ) ) ^ ^ ^ ^ H H H H p p p p } } } } 6 6 6 6 1 1 1 1 I I I I @ @ @ @ ",
"@ @ @ @ u u u u F F F F ^ ^ ^ ^ ^ ^ ^ ^ G G G G p p p p ) ) ) ) ^ ^ ^ ^ H H H H p p p p } } } } 6 6 6 6 1 1 1 1 I I I I @ @ @ @ ",
"@ @ @ @ J J J J D D D D 6 6 6 6 | | | | K K K K L L L L ) ) ) ) > > > > 1 1 1 1 e e e e ^ ^ ^ ^ ^ ^ ^ ^ , , , , ' ' ' ' @ @ @ @ ",
"@ @ @ @ J J J J D D D D 6 6 6 6 | | | | K K K K L L L L ) ) ) ) > > > > 1 1 1 1 e e e e ^ ^ ^ ^ ^ ^ ^ ^ , , , , ' ' ' ' @ @ @ @ ",
"@ @ @ @ J J J J D D D D 6 6 6 6 | | | | K K K K L L L L ) ) ) ) > > > > 1 1 1 1 e e e e ^ ^ ^ ^ ^ ^ ^ ^ , , , , ' ' ' ' @ @ @ @ ",
"@ @ @ @ J J J J D D D D 6 6 6 6 | | | | K K K K L L L L ) ) ) ) > > > > 1 1 1 1 e e e e ^ ^ ^ ^ ^ ^ ^ ^ , , , , ' ' ' ' @ @ @ @ ",
"@ @ @ @ J J J J M M M M a a a a N N N N O O O O P P P P 6 6 6 6 a a a a Q Q Q Q f f f f 0 0 0 0 x x x x R R R R ' ' ' ' @ @ @ @ ",
"@ @ @ @ J J J J M M M M a a a a N N N N O O O O P P P P 6 6 6 6 a a a a Q Q Q Q f f f f 0 0 0 0 x x x x R R R R ' ' ' ' @ @ @ @ ",
"@ @ @ @ J J J J M M M M a a a a N N N N O O O O P P P P 6 6 6 6 a a a a Q Q Q Q f f f f 0 0 0 0 x x x x R R R R ' ' ' ' @ @ @ @ ",
"@ @ @ @ J J J J M M M M a a a a N N N N O O O O P P P P 6 6 6 6 a a a a Q Q Q Q f f f f 0 0 0 0 x x x x R R R R ' ' ' ' @ @ @ @ ",
"@ @ @ @ S S S S u u u u > > > >         T T T T U U U U         | | | | 1 1 1 1 1 1 1 1                 , , , , I I I I @ @ @ @ ",
"@ @ @ @ S S S S u u u u > > > >         T T T T U U U U         | | | | 1 1 1 1 1 1 1 1                 , , , , I I I I @ @ @ @ ",
"@ @ @ @ S S S S u u u u > > > >         T T T T U U U U         | | | | 1 1 1 1 1 1 1 1                 , , , , I I I I @ @ @ @ ",
"@ @ @ @ S S S S u u u u > > > >         T T T T U U U U         | | | | 1 1 1 1 1 1 1 1                 , , , , I I I I @ @ @ @ ",
"@ @ @ @ V V V V n n n n W W W W k k k k X X X X Y Y Y Y > > > > Z Z Z Z ` ` ` `  . . . .> > > > k k k k 2 2 2 2 2 2 2 2 @ @ @ @ ",
"@ @ @ @ V V V V n n n n W W W W k k k k X X X X Y Y Y Y > > > > Z Z Z Z ` ` ` `  . . . .> > > > k k k k 2 2 2 2 2 2 2 2 @ @ @ @ ",
"@ @ @ @ V V V V n n n n W W W W k k k k X X X X Y Y Y Y > > > > Z Z Z Z ` ` ` `  . . . .> > > > k k k k 2 2 2 2 2 2 2 2 @ @ @ @ ",
"@ @ @ @ V V V V n n n n W W W W k k k k X X X X Y Y Y Y > > > > Z Z Z Z ` ` ` `  . . . .> > > > k k k k 2 2 2 2 2 2 2 2 @ @ @ @ ",
"N N N N ................N N N N N N N N f f f f U U U U N N N N N N N N +.+.+.+.+.+.+.+.N N N N N N N N @.@.@.@.p p p p N N N N ",
"N N N N ................N N N N N N N N f f f f U U U U N N N N N N N N +.+.+.+.+.+.+.+.N N N N N N N N @.@.@.@.p p p p N N N N ",
"N N N N ................N N N N N N N N f f f f U U U U N N N N N N N N +.+.+.+.+.+.+.+.N N N N N N N N @.@.@.@.p p p p N N N N ",
"N N N N ................N N N N N N N N f f f f U U U U N N N N N N N N +.+.+.+.+.+.+.+.N N N N N N N N @.@.@.@.p p p p N N N N "};
