/* XPM */
static char * exit1_xpm[] = {
"64 64 46 1",
" 	c #291A1E",
".	c #747171",
"+	c #C7C7C7",
"@	c #26181C",
"#	c #C0BFBF",
"$	c #C6C5C5",
"%	c #838181",
"&	c #A09F9F",
"*	c #B0AFAF",
"=	c #F1F1F1",
"-	c #CFCECF",
";	c #D1D0D0",
">	c #2A1A1E",
",	c #B5B4B4",
"'	c #DDDDDD",
")	c #2C1B1F",
"!	c #A9A7A7",
"~	c #A8A7A7",
"{	c #A9A7A8",
"]	c #2A1B1F",
"^	c #2F1D21",
"/	c #848182",
"(	c #C5C4C5",
"_	c #2A1B1E",
":	c #8D8A8A",
"<	c #8C898A",
"[	c #2C1C1F",
"}	c #2B1B1F",
"|	c #949292",
"1	c #BAB9BA",
"2	c #2E1D21",
"3	c #2D1C20",
"4	c #301E22",
"5	c #2E1E21",
"6	c #2D1D20",
"7	c #321F23",
"8	c #311F22",
"9	c #28191D",
"0	c #27181C",
"a	c #25171B",
"b	c #311F23",
"c	c #27191C",
"d	c #28181C",
"e	c #24171B",
"f	c #26171B",
"g	c #29191D",
"    ....++++@@@@@@@@####$$$$@@@@@@@@%%%%%%%%@@@@@@@@&&&&****    ",
"    ....++++@@@@@@@@####$$$$@@@@@@@@%%%%%%%%@@@@@@@@&&&&****    ",
"    ....++++@@@@@@@@####$$$$@@@@@@@@%%%%%%%%@@@@@@@@&&&&****    ",
"    ....++++@@@@@@@@####$$$$@@@@@@@@%%%%%%%%@@@@@@@@&&&&****    ",
"@@@@====----        ;;;;---->>>>    ,,,,''''    ))))!!!!~~~~@@@@",
"@@@@====----        ;;;;---->>>>    ,,,,''''    ))))!!!!~~~~@@@@",
"@@@@====----        ;;;;---->>>>    ,,,,''''    ))))!!!!~~~~@@@@",
"@@@@====----        ;;;;---->>>>    ,,,,''''    ))))!!!!~~~~@@@@",
"@@@@~~~~{{{{]]]]^^^^////((((____    ::::<<<<[[[[}}}}||||1111@@@@",
"@@@@~~~~{{{{]]]]^^^^////((((____    ::::<<<<[[[[}}}}||||1111@@@@",
"@@@@~~~~{{{{]]]]^^^^////((((____    ::::<<<<[[[[}}}}||||1111@@@@",
"@@@@~~~~{{{{]]]]^^^^////((((____    ::::<<<<[[[[}}}}||||1111@@@@",
"@@@@@@@@2222    ]]]]3333]]]]}}}}3333    3333}}}}]]]]>>>>>>>>@@@@",
"@@@@@@@@2222    ]]]]3333]]]]}}}}3333    3333}}}}]]]]>>>>>>>>@@@@",
"@@@@@@@@2222    ]]]]3333]]]]}}}}3333    3333}}}}]]]]>>>>>>>>@@@@",
"@@@@@@@@2222    ]]]]3333]]]]}}}}3333    3333}}}}]]]]>>>>>>>>@@@@",
"@@@@[[[[44445555666655554444))))777766662222555588882222    @@@@",
"@@@@[[[[44445555666655554444))))777766662222555588882222    @@@@",
"@@@@[[[[44445555666655554444))))777766662222555588882222    @@@@",
"@@@@[[[[44445555666655554444))))777766662222555588882222    @@@@",
"@@@@@@@@    }}}}            [[[[9999                ))))@@@@@@@@",
"@@@@@@@@    }}}}            [[[[9999                ))))@@@@@@@@",
"@@@@@@@@    }}}}            [[[[9999                ))))@@@@@@@@",
"@@@@@@@@    }}}}            [[[[9999                ))))@@@@@@@@",
"@@@@0000))))33333333^^^^[[[[))))))))[[[[^^^^[[[[33333333    @@@@",
"@@@@0000))))33333333^^^^[[[[))))))))[[[[^^^^[[[[33333333    @@@@",
"@@@@0000))))33333333^^^^[[[[))))))))[[[[^^^^[[[[33333333    @@@@",
"@@@@0000))))33333333^^^^[[[[))))))))[[[[^^^^[[[[33333333    @@@@",
"@@@@aaaa[[[[    3333]]]]))))        }}}}}}}}]]]]))))    @@@@@@@@",
"@@@@aaaa[[[[    3333]]]]))))        }}}}}}}}]]]]))))    @@@@@@@@",
"@@@@aaaa[[[[    3333]]]]))))        }}}}}}}}]]]]))))    @@@@@@@@",
"@@@@aaaa[[[[    3333]]]]))))        }}}}}}}}]]]]))))    @@@@@@@@",
"@@@@    777733335555bbbb5555444444445555bbbb4444555533333333@@@@",
"@@@@    777733335555bbbb5555444444445555bbbb4444555533333333@@@@",
"@@@@    777733335555bbbb5555444444445555bbbb4444555533333333@@@@",
"@@@@    777733335555bbbb5555444444445555bbbb4444555533333333@@@@",
"@@@@@@@@))))]]]]            99993333            }}}}>>>>@@@@@@@@",
"@@@@@@@@))))]]]]            99993333            }}}}>>>>@@@@@@@@",
"@@@@@@@@))))]]]]            99993333            }}}}>>>>@@@@@@@@",
"@@@@@@@@))))]]]]            99993333            }}}}>>>>@@@@@@@@",
"@@@@]]]]}}}}]]]]]]]][[[[3333))))]]]]]]]]}}}}[[[[3333}}}}cccc@@@@",
"@@@@]]]]}}}}]]]]]]]][[[[3333))))]]]]]]]]}}}}[[[[3333}}}}cccc@@@@",
"@@@@]]]]}}}}]]]]]]]][[[[3333))))]]]]]]]]}}}}[[[[3333}}}}cccc@@@@",
"@@@@]]]]}}}}]]]]]]]][[[[3333))))]]]]]]]]}}}}[[[[3333}}}}cccc@@@@",
"@@@@@@@@>>>>3333}}}}3333    ))))>>>>]]]]3333]]]]]]]]))))9999@@@@",
"@@@@@@@@>>>>3333}}}}3333    ))))>>>>]]]]3333]]]]]]]]))))9999@@@@",
"@@@@@@@@>>>>3333}}}}3333    ))))>>>>]]]]3333]]]]]]]]))))9999@@@@",
"@@@@@@@@>>>>3333}}}}3333    ))))>>>>]]]]3333]]]]]]]]))))9999@@@@",
"@@@@dddd88886666bbbb555588883333666644444444555544445555    @@@@",
"@@@@dddd88886666bbbb555588883333666644444444555544445555    @@@@",
"@@@@dddd88886666bbbb555588883333666644444444555544445555    @@@@",
"@@@@dddd88886666bbbb555588883333666644444444555544445555    @@@@",
"@@@@@@@@}}}}>>>>                }}}}]]]]            9999>>>>@@@@",
"@@@@@@@@}}}}>>>>                }}}}]]]]            9999>>>>@@@@",
"@@@@@@@@}}}}>>>>                }}}}]]]]            9999>>>>@@@@",
"@@@@@@@@}}}}>>>>                }}}}]]]]            9999>>>>@@@@",
"@@@@eeee}}}}ffff9999}}}}9999>>>>gggg@@@@}}}}>>>>99999999@@@@@@@@",
"@@@@eeee}}}}ffff9999}}}}9999>>>>gggg@@@@}}}}>>>>99999999@@@@@@@@",
"@@@@eeee}}}}ffff9999}}}}9999>>>>gggg@@@@}}}}>>>>99999999@@@@@@@@",
"@@@@eeee}}}}ffff9999}}}}9999>>>>gggg@@@@}}}}>>>>99999999@@@@@@@@",
"bbbbbbbbbbbbbbbbbbbbbbbbbbbbbbbbbbbbbbbbbbbbbbbbbbbbbbbbbbbbbbbb",
"bbbbbbbbbbbbbbbbbbbbbbbbbbbbbbbbbbbbbbbbbbbbbbbbbbbbbbbbbbbbbbbb",
"bbbbbbbbbbbbbbbbbbbbbbbbbbbbbbbbbbbbbbbbbbbbbbbbbbbbbbbbbbbbbbbb",
"bbbbbbbbbbbbbbbbbbbbbbbbbbbbbbbbbbbbbbbbbbbbbbbbbbbbbbbbbbbbbbbb"};
