/* XPM */
static char * char00_xpm[] = {
"16 16 8 1",
" 	c None",
".	c #141B1B",
"+	c #61683A",
"@	c #939446",
"#	c #61A53F",
"$	c #8FD032",
"%	c #FFFFFF",
"&	c #477238",
"                ",
"                ",
"    ........    ",
"   .+@@@@@@+.   ",
"  .+++@@@@+++.  ",
"  .++++++++++.  ",
"  .++######++.  ",
"  .+#$$$$%%%+.  ",
" .$+%%%$$%%%+$. ",
" .$$%%%$$%%%$$. ",
"  .$$$$$$$$$$.  ",
"  ..&$$$$$$&..  ",
" .$$#&&&&&&#$$. ",
" .$$###..###$$. ",
"  ..&&....&&..  ",
"                "};
