/* XPM */
static char *_7c4d840da17421de0d650b5039b1d50ZQhWADRXOfBK4HGx[] = {
/* columns rows colors chars-per-pixel */
"64 64 161 2 ",
"   c #141B1B",
".  c #141C1B",
"X  c #19221C",
"o  c #1D2B1F",
"O  c #202C1D",
"+  c #2E3525",
"@  c #253825",
"#  c #283E27",
"$  c #333A27",
"%  c #2D3436",
"&  c #2F3639",
"*  c #31373A",
"=  c #31383B",
"-  c #31383C",
";  c #2D4020",
":  c #2F4626",
">  c #2E4729",
",  c #2E482A",
"<  c #3F462C",
"1  c #375428",
"2  c #3D6032",
"3  c #515834",
"4  c #575E36",
"5  c #456324",
"6  c #507326",
"7  c #406B30",
"8  c #446B32",
"9  c #436E33",
"0  c #546D3F",
"q  c #467037",
"w  c #4E7B37",
"e  c #477238",
"r  c #4C7C39",
"t  c #61683A",
"y  c #646B3B",
"u  c #616E3A",
"i  c #666C3B",
"p  c #686E3C",
"a  c #61713B",
"s  c #667439",
"d  c #6E743D",
"f  c #617C3C",
"g  c #383E43",
"h  c #3B4347",
"j  c #3D4347",
"k  c #3E454A",
"l  c #46554C",
"z  c #4A5848",
"x  c #4C5F4E",
"c  c #444A50",
"v  c #474E53",
"b  c #484E53",
"n  c #484F55",
"m  c #495056",
"M  c #577256",
"N  c #5E7E59",
"B  c #797D40",
"V  c #515860",
"C  c #565B63",
"Z  c #5D6465",
"A  c #5B626B",
"S  c #5D656E",
"D  c #686D76",
"F  c #696E77",
"G  c #4E803A",
"H  c #548337",
"J  c #5F8433",
"K  c #518239",
"L  c #57913C",
"P  c #59963D",
"I  c #638F2A",
"U  c #69982B",
"Y  c #61823C",
"T  c #6F9333",
"R  c #61953E",
"E  c #5FA03E",
"W  c #78AF2E",
"Q  c #60A33F",
"!  c #61A53F",
"~  c #6FA93A",
"^  c #6AAE3C",
"/  c #7DA635",
"(  c #72AB35",
")  c #7FAB35",
"_  c #7CB734",
"`  c #7DB933",
"'  c #74B73A",
"]  c #5F805C",
"[  c #7AB943",
"{  c #80BD33",
"}  c #80C236",
"|  c #83C436",
" . c #8FD032",
".. c #95D33D",
"X. c #828542",
"o. c #858843",
"O. c #8A8C44",
"+. c #939446",
"@. c #8C9570",
"#. c #959A7B",
"$. c #969B7C",
"%. c #99A27B",
"&. c #9CD549",
"*. c #A1D853",
"=. c #AFDD6C",
"-. c #B4E076",
";. c #717681",
":. c #727984",
">. c #767A85",
",. c #747C87",
"<. c #767D89",
"1. c #787F8B",
"2. c #7A808B",
"3. c #7D818C",
"4. c #7E8490",
"5. c #838693",
"6. c #828996",
"7. c #868996",
"8. c #888F9C",
"9. c #89919F",
"0. c #A4A88D",
"q. c #8E92A1",
"w. c #9094A3",
"e. c #9396A5",
"r. c #9497A6",
"t. c #9498A6",
"y. c #9399A8",
"u. c #9498A8",
"i. c #989BAA",
"p. c #989CAA",
"a. c #989DAD",
"s. c #9C9FAE",
"d. c #9DA0AF",
"f. c #9AA0B0",
"g. c #9FA3B3",
"h. c #9FA4B3",
"j. c #9EA5B6",
"k. c #9FA7B8",
"l. c #A3A7B7",
"z. c #A3A8B9",
"x. c #A4A8B8",
"c. c #A3ABBC",
"v. c #A5ABBC",
"b. c #A5ACBD",
"n. c #A7AEBF",
"m. c #A4CB90",
"M. c #BBE282",
"N. c #C4E693",
"B. c #C6E796",
"V. c #D0EBA8",
"C. c #A8AFC0",
"Z. c #A9B1C3",
"A. c #ADB2C2",
"S. c #B0B7C9",
"D. c #B1B8C9",
"F. c #DFE0D7",
"G. c #E0E3D7",
"H. c #E2EEDC",
"J. c #E8F5D5",
"K. c #E8F4DA",
"L. c white",
/* pixels */
"s.s.s.s.e.e.e.e.e.e.e.e.e.e.e.e.e.e.e.e.e.e.e.e.e.e.e.e.e.e.e.e.e.e.e.e.e.e.e.e.e.e.e.e.e.e.e.e.e.e.e.e.e.e.e.e.r.e.e.e.s.s.s.s.",
"s.s.s.s.e.e.e.e.e.e.e.e.e.e.e.e.e.e.e.e.e.e.e.e.e.e.e.e.e.e.e.e.e.e.e.e.e.e.e.e.e.e.e.e.e.e.e.e.e.e.e.e.e.e.e.e.r.r.e.e.s.s.s.s.",
"s.s.s.s.e.e.e.e.e.e.e.e.e.e.e.e.e.e.e.e.e.e.e.e.e.e.e.e.e.e.e.e.e.e.e.e.e.e.e.e.e.e.e.e.e.e.e.e.e.e.e.e.e.e.e.e.r.r.r.r.s.s.s.s.",
"s.s.s.s.e.e.e.e.e.e.e.e.e.e.e.e.e.e.e.e.e.e.e.e.e.e.e.e.e.e.e.e.e.e.e.e.e.e.e.e.e.e.e.e.e.e.e.e.e.e.e.e.e.e.e.e.r.r.r.r.s.s.s.s.",
"r.e.e.e.e.e.e.e.z.z.z.z.g.g.g.g.g.g.g.g.g.g.g.g.z.z.z.z.a.a.a.a.g.g.g.g.g.g.g.g.g.g.g.g.g.g.g.g.k.j.j.j.l.l.l.l.u.u.u.i.e.e.e.e.",
"r.e.e.e.e.e.e.e.z.z.z.z.g.g.g.g.g.g.g.g.g.g.g.g.z.z.z.z.a.a.a.a.g.g.g.g.g.g.g.g.g.g.g.g.g.g.g.g.k.j.j.j.l.l.l.l.u.u.i.i.e.e.e.e.",
"r.t.e.e.q.q.e.e.z.z.z.z.g.g.g.g.g.g.g.g.g.g.g.g.z.z.z.z.a.a.a.a.g.g.g.g.g.g.g.g.g.g.g.g.g.g.g.g.k.k.j.j.l.l.l.l.u.u.u.u.e.e.e.e.",
"r.r.e.e.q.e.e.e.z.z.z.z.g.g.g.g.g.g.g.g.g.g.g.g.z.z.z.z.f.a.a.a.g.g.g.g.g.g.g.g.g.g.g.g.g.g.g.g.k.k.j.j.l.l.l.l.u.u.u.u.e.e.e.e.",
"r.r.r.r.e.e.e.e.x.x.x.x.g.g.g.g.b.b.b.b.x.x.x.x.l.l.l.l.g.g.g.g.g.g.g.g.C.C.C.C.v.v.v.v.x.x.x.x.l.l.l.l.d.d.d.d.a.a.a.a.e.e.e.e.",
"r.r.r.r.e.e.e.e.x.x.x.x.g.g.g.g.b.b.b.b.x.x.x.x.l.l.l.l.g.g.g.g.g.g.g.g.C.C.b.b.v.v.v.v.x.x.x.x.l.l.l.l.d.d.d.d.a.a.a.a.e.e.e.e.",
"r.r.r.r.e.e.e.e.x.x.x.x.g.g.g.g.b.8.m m b b b b v v v v v v v v c c c c m m n m n n n n b b A x.j.j.l.l.d.d.d.d.a.a.a.a.e.e.e.e.",
"r.r.r.r.e.e.e.e.x.x.x.x.g.g.g.g.b.<.            . .                                         = x.j.j.l.l.d.d.d.d.a.a.a.a.e.e.e.e.",
"r.r.r.r.t.t.t.t.b.b.b.b.a.a.a.a.h.;.. .                                                     * l.g.g.g.g.f.f.f.f.f.f.f.f.e.e.e.e.",
"r.r.r.r.t.t.t.t.b.b.b.b.a.a.a.a.h.;.. .                                                     * l.g.g.g.g.f.f.f.f.f.f.f.f.e.e.e.e.",
"r.r.r.r.t.t.t.t.b.b.b.b.a.a.      + t t t o.+.+.+.+.+.+.+.+.+.+.+.+.+.+.+.+.+.+.+.+.+.i t t 3       F g.f.f.f.f.f.f.f.f.e.e.e.e.",
"r.r.r.r.t.t.t.t.b.b.b.b.a.a.      + t t t o.+.+.+.+.+.+.+.+.+.+.+.+.+.+.+.+.+.+.+.+.+.i t t 3       F g.f.f.f.f.f.f.f.f.e.e.e.e.",
"r.r.r.r.z.z.z.z.Z.Z.Z.Z.A.A.      + t t t o.+.+.+.+.+.+.+.+.+.+.+.+.+.+.+.+.+.+.+.+.+.i t t 3       :.S.b.b.b.b.g.g.g.g.e.e.e.e.",
"r.r.r.r.z.z.z.z.Z.Z.9.1.2.2.+ + + < t t t B X.X.X.+.+.+.+.+.+.+.+.+.+.+.+.+.+.O.X.X.X.y t t 4 + + + Z 3.,.,.b.b.g.g.g.g.e.e.e.e.",
"r.r.r.r.z.z.z.z.Z.Z.m       t t t t t t t t t t t +.+.+.+.+.+.+.+.+.+.+.+.+.+.B t t t t t t t t t t $       c.b.g.g.g.g.e.e.e.e.",
"r.r.r.r.z.z.z.z.Z.Z.m       t t t t t t t t t t t +.+.+.+.+.+.+.+.+.+.+.+.+.+.B t t t t t t t t t t $       c.b.g.g.g.g.e.e.e.e.",
"r.r.r.r.t.t.t.t.a.a.c       t t t t t t t t t t t +.+.+.+.+.+.+.+.+.+.+.+.+.+.B t t t t t t t t t t $       j.j.t.t.t.t.e.e.e.e.",
"r.r.r.r.t.t.t.t.a.a.c       t t t t t t t t t t t d d d d d d d d d d d d d d p t t t t t t t t t t $       j.j.t.t.t.t.e.e.e.e.",
"r.r.r.r.t.t.t.t.a.a.c       t t t t t t t t t t t t t t t t t t t t t t t t t t t t t t t t t t t t $       j.l.u.u.t.t.e.e.e.e.",
"r.r.r.r.t.t.t.t.a.a.c       t t t t t t t t t t t t t t t t t t t t t t t t t t t t t t t t t t t t $       j.l.u.u.u.u.e.e.e.e.",
"r.r.r.r.u.u.u.u.l.l.v       t t t t t t t t t t t t t t t t t t t t t t t t t t t t t t t t t t t t $       z.z.s.a.a.a.e.e.e.e.",
"r.r.r.r.u.u.u.u.l.l.v       t t t t t t t R ! ! ! ! ! ! ! ! ! ! ! ! ! ! ! ! ! ! ! ! ! u t t t t t t $       z.z.s.s.a.a.e.e.r.r.",
"r.r.r.r.u.u.u.u.l.l.v       t t t t t t t R ! ! ! ! ! ! ! ! ! ! ! ! ! ! ! ! ! ! ! ! ! u t t t t t t $       z.z.s.s.s.s.e.e.e.r.",
"r.r.r.r.u.u.u.u.l.l.v       t t t t t t t R ! ! ! ! ! ! ! ! ! ! ! ! ! ! ! ! ! ! ! ! ! u t t t t t t $       z.z.s.s.s.s.e.e.e.r.",
"r.r.r.r.q.q.q.q.z.z.v       t t t a Y Y Y ~ ' ' ' ' ' ' ' ' ' ' ' ' ' [ m.m.m.m.m.m.m.0.0.0.$.t t t $       d.g.u.u.u.u.e.e.e.e.",
"r.r.r.r.q.q.q.q.z.z.v       t t t f ! ! ! |  . . . . . . . . . . . . .&.L.L.L.L.L.L.L.L.L.L.F.t t t $       d.g.u.u.u.u.e.e.e.e.",
"r.r.r.r.q.q.q.q.z.z.v       t t t f ! ! ! |  . . . . . . . . . . . . .&.L.L.L.L.L.L.L.L.L.L.F.t t t $       d.g.u.u.u.u.e.e.e.e.",
"r.r.r.r.q.q.q.q.z.z.v       t t t f ! ! ! |  . . . . . . . . . . . . .&.L.L.L.L.L.L.L.L.L.L.F.t t t $       d.g.u.u.u.u.e.e.e.e.",
"r.r.r.r.g.g.5.% - - J W W W t t t @.H.H.H.K.K.K.K.K.K.K.N. . . . . . .&.L.L.L.L.L.L.L.L.L.L.F.t t t T W W W & & & V b.b.e.e.e.e.",
"r.r.r.r.g.g.3.      I  . . .t t t #.L.L.L.L.L.L.L.L.L.L.V. . . . . . .&.L.L.L.L.L.L.L.L.L.L.F.t t t /  . . ..     k b.b.e.e.e.e.",
"r.r.r.r.g.g.3.      I  . . .t t t #.L.L.L.L.L.L.L.L.L.L.V. . . . . . .&.L.L.L.L.L.L.L.L.L.L.F.t t t /  . . ..     k b.b.e.e.e.e.",
"r.r.r.r.g.g.3.      I  . . .s s s %.L.L.L.L.L.L.L.L.L.L.V. . . . . . .&.L.L.L.L.L.L.L.L.L.L.G.s s s )  . . ..     k b.b.e.e.e.e.",
"r.r.r.r.t.t.>.      I  . . . . . .-.L.L.L.L.L.L.L.L.L.L.V. . . . . . .&.L.L.L.L.L.L.L.L.L.L.J. . . . . . . ..     h u.u.e.e.e.e.",
"r.r.r.r.t.t.>.      I  . . . . . .-.L.L.L.L.L.L.L.L.L.L.V. . . . . . .&.L.L.L.L.L.L.L.L.L.L.J. . . . . . . ..     h u.u.e.e.e.e.",
"r.r.r.r.t.t.>.      I  . . . . . .-.L.L.L.L.L.L.L.L.L.L.V. . . . . . .&.L.L.L.L.L.L.L.L.L.L.J. . . . . . . ..     h u.u.e.e.r.e.",
"r.r.r.r.t.t.7.C A A 0 6 6 6  . . .*.B.B.B.B.B.B.B.B.B.B.=. . . . . . ...B.B.B.B.B.B.B.B.B.B.M. . . .U 6 6 6 A A C F u.u.e.e.r.r.",
"e.e.e.e.g.g.g.g.g.g.v        . . . . . . . . . . . . . . . . . . . . . . . . . . . . . . . . . . . .5       g.g.i.i.i.i.e.e.e.e.",
"e.e.e.e.g.g.g.g.g.g.v        . . . . . . . . . . . . . . . . . . . . . . . . . . . . . . . . . . . .5       g.g.i.i.i.i.e.e.e.e.",
"r.r.e.e.g.g.g.g.g.g.v        . . . . . . . . . . . . . . . . . . . . . . . . . . . . . . . . . . . .5       g.g.i.i.i.i.e.e.e.e.",
"r.r.e.e.f.g.g.g.g.g.v       O O O : w w w `  . . . . . . . . . . . . . . . . . . . . .H w w 8 O O O X       g.g.i.i.i.i.e.e.e.e.",
"r.r.r.r.t.t.t.t.a.a.c             @ e e e _  . . . . . . . . . . . . . . . . . . . . .w e e 2               j.j.a.a.a.a.e.e.e.e.",
"r.r.r.r.t.t.t.t.a.a.c             @ e e e _  . . . . . . . . . . . . . . . . . . . . .w e e 2               j.j.a.a.a.a.e.e.e.e.",
"r.r.r.r.t.t.q.1.4.4.z ; ; ; ; ; ; 1 r r r ( { { { { { { { { { { { { { { { { { { { { { K r r q ; ; ; ; ; ; ; 6.6.3.7.a.a.e.e.e.e.",
"r.r.r.r.t.t.>.      I  . . . . . .} ! ! ! G e e e e e e e e e e e e e e e e e e e e e E ! ! ^  . . . . . . ..     h a.a.e.e.e.e.",
"r.r.r.r.y.y.>.      I  . . . . . .} ! ! ! G e e e e e e e e e e e e e e e e e e e e e E ! ! ^  . . . . . . ..     j g.g.e.e.e.e.",
"r.r.r.r.y.y.>.      I  . . . . . .} ! ! ! G e e e e e e e e e e e e e e e e e e e e e E ! ! ^  . . . . . . ..     j g.g.e.e.e.e.",
"r.r.r.r.y.y.>.      I  . . . . . .} ! ! ! P L L L L L L 9 # # # # # # > L L L L L L L Q ! ! ^  . . . . . . ..     j g.g.e.e.e.e.",
"r.r.r.r.y.y.>.      I  . . . . . .} ! ! ! ! ! ! ! ! ! ! 7             o ! ! ! ! ! ! ! ! ! ! ^  . . . . . . ..     j g.g.e.e.e.e.",
"r.r.r.r.t.t.>.      I  . . . . . .} ! ! ! ! ! ! ! ! ! ! 7             o ! ! ! ! ! ! ! ! ! ! ^  . . . . . . ..     h f.f.e.e.e.e.",
"r.r.r.r.t.t.>.      I  . . . . . .} ! ! ! ! ! ! ! ! ! ! 7             o ! ! ! ! ! ! ! ! ! ! ^  . . . . . . ..     h f.f.e.e.e.e.",
"r.r.r.r.t.t.t.t.l.l.v . . . . . . @ e e e e e e q . . .                 . . . , e e e e e e 2 . . . . . . . u.p.a.f.f.f.e.e.e.e.",
"r.r.r.r.t.t.t.t.l.l.v             @ e e e e e e q                             > e e e e e e 2               p.p.f.f.f.f.e.e.e.e.",
"r.r.r.r.q.q.q.q.f.f.v             @ e e e e e e e                             > e e e e e e 2               y.y.e.e.e.e.e.e.e.e.",
"r.r.r.r.q.q.q.q.f.f.S h g g g g h l N N ] ] ] ] N h h h h h h h h h h h g g g x ] ] ] ] N N M h h h h h h h y.y.e.e.e.e.e.e.e.e.",
"r.r.r.r.q.q.q.q.f.f.f.f.w.w.w.w.u.u.u.u.f.f.f.f.u.u.u.u.a.a.a.a.u.u.u.u.r.r.r.r.f.f.f.f.a.a.a.a.u.u.u.u.y.y.y.y.e.e.e.e.e.e.e.e.",
"r.r.r.r.q.q.q.q.f.f.f.f.w.w.w.w.u.u.u.u.f.f.f.f.u.u.u.u.a.a.a.a.u.u.u.u.r.r.r.r.f.f.f.f.a.a.a.a.u.u.u.u.y.y.y.y.e.e.e.e.e.e.e.e.",
"D.D.D.D.D.D.D.D.D.D.D.D.D.D.D.D.D.D.D.D.D.D.D.D.D.D.D.D.D.D.D.D.D.D.D.D.D.D.D.D.D.D.D.D.D.D.D.D.D.D.D.D.D.D.D.D.D.D.D.D.D.D.D.D.",
"D.D.D.D.D.D.D.D.D.D.D.D.D.D.D.D.D.D.D.D.D.D.D.D.D.D.D.D.D.D.D.D.D.D.D.D.D.D.D.D.D.D.D.D.D.D.D.D.D.D.D.D.D.D.D.D.D.D.D.D.D.D.D.D.",
"D.D.D.D.D.D.D.D.D.D.D.D.D.D.D.D.D.D.D.D.D.D.D.D.D.D.D.D.D.D.D.D.D.D.D.D.D.D.D.D.D.D.D.D.D.D.D.D.D.D.D.D.D.D.D.D.D.D.D.D.D.D.D.D.",
"D.D.D.D.D.D.D.D.D.D.D.D.D.D.D.D.D.D.D.D.D.D.D.D.D.D.D.D.D.D.D.D.D.D.D.D.D.D.D.D.D.D.D.D.D.D.D.D.D.D.D.D.D.D.D.D.D.D.D.D.D.D.D.D."
};
