/* XPM */
static char *fae77492e7e64790952be3c5a1983549LA6hcsT9JRM0u7n3[] = {
/* columns rows colors chars-per-pixel */
"64 64 157 2 ",
"   c #141B1B",
".  c #151C1B",
"X  c #151B1C",
"o  c #151C1C",
"O  c #282F23",
"+  c #223223",
"@  c #273C26",
"#  c #283F24",
"$  c #313827",
"%  c #333A3E",
"&  c #343A3E",
"*  c #353C3F",
"=  c #284025",
"-  c #354B21",
";  c #314E28",
":  c #34512D",
">  c #375A2B",
",  c #395B30",
"<  c #3A5C31",
"1  c #3D652E",
"2  c #444B2E",
"3  c #425E24",
"4  c #4D5432",
"5  c #555C35",
"6  c #436024",
"7  c #4A6D28",
"8  c #4E732A",
"9  c #4C732E",
"0  c #477238",
"q  c #487338",
"w  c #507A31",
"e  c #61683A",
"r  c #646B3B",
"t  c #666C3B",
"y  c #6E733D",
"u  c #6E743D",
"i  c #61793B",
"p  c #617F3C",
"a  c #74783E",
"s  c #363D41",
"d  c #383E42",
"f  c #394044",
"g  c #42474D",
"h  c #43494E",
"j  c #44494F",
"k  c #434A50",
"l  c #444A50",
"z  c #474D52",
"x  c #484D53",
"c  c #494F55",
"v  c #495057",
"b  c #4B5158",
"n  c #4F575C",
"m  c #4F565D",
"M  c #525858",
"N  c #52585F",
"B  c #586C5B",
"V  c #596E5D",
"C  c #5B715B",
"Z  c #5C735D",
"A  c #595E66",
"S  c #5B6164",
"D  c #5E636B",
"F  c #606C63",
"G  c #656A73",
"H  c #666C76",
"J  c #686E77",
"K  c #676E78",
"L  c #6A6F79",
"P  c #697270",
"I  c #6C7079",
"U  c #6C717A",
"Y  c #6B727C",
"T  c #5A8B36",
"R  c #5B8C36",
"E  c #51853B",
"W  c #57923C",
"Q  c #5A983D",
"!  c #618D29",
"~  c #6D9F2C",
"^  c #6A8B31",
"/  c #61803C",
"(  c #629536",
")  c #6B9230",
"_  c #61953E",
"`  c #619F3C",
"'  c #6FA12C",
"]  c #73A62D",
"[  c #61A13D",
"{  c #61A53F",
"}  c #7EA935",
"|  c #6DB03C",
" . c #72B53A",
".. c #648162",
"X. c #658465",
"o. c #83B534",
"O. c #8ECF32",
"+. c #8FD032",
"@. c #90D034",
"#. c #808341",
"$. c #878A43",
"%. c #939446",
"&. c #82BC57",
"*. c #868C68",
"=. c #A1D854",
"-. c #A5D95A",
";. c #A9DB62",
":. c #ACDC68",
">. c #B9E17E",
",. c #6E7580",
"<. c #717680",
"1. c #777E89",
"2. c #797E8A",
"3. c #7B808B",
"4. c #79818E",
"5. c #7E8490",
"6. c #9CA184",
"7. c #8E92A1",
"8. c #9094A3",
"9. c #9396A5",
"0. c #9497A6",
"q. c #9598A7",
"w. c #9399A8",
"e. c #9498A8",
"r. c #979CAC",
"t. c #989BAA",
"y. c #989CAB",
"u. c #989DAD",
"i. c #9C9FAE",
"p. c #9DA0AF",
"a. c #9BA1B1",
"s. c #9EA3B3",
"d. c #9FA3B3",
"f. c #9FA5B5",
"g. c #9FA7B8",
"h. c #A1A4B3",
"j. c #A1A7B7",
"k. c #A3A8B9",
"l. c #A3AABA",
"z. c #A4A8B8",
"x. c #A4ABBC",
"c. c #A5ACBD",
"v. c #9CC687",
"b. c #BBE283",
"n. c #B8C6A7",
"m. c #C3E692",
"M. c #C4C7B6",
"N. c #D5EDB3",
"B. c #A7AFC0",
"V. c #A9B1C3",
"C. c #B1B8C9",
"Z. c #D6D8CC",
"A. c #D6E7CD",
"S. c #D6E8CD",
"D. c #E2F3C9",
"F. c #ECF7DD",
"G. c white",
/* pixels */
"i.i.i.i.9.9.9.9.9.9.9.9.9.9.9.9.9.9.9.9.9.9.9.9.9.9.9.9.9.9.9.9.9.9.9.9.9.9.9.9.9.9.9.9.9.9.9.9.9.9.9.9.9.9.9.9.0.9.9.9.i.i.i.i.",
"i.i.i.i.9.9.9.9.9.9.9.9.9.9.9.9.9.9.9.9.9.9.9.9.9.9.9.9.9.9.9.9.9.9.9.9.9.9.9.9.9.9.9.9.9.9.9.9.9.9.9.9.9.9.9.9.0.0.9.9.i.i.i.i.",
"i.i.i.i.9.9.9.9.9.9.9.9.9.9.9.9.9.9.9.9.9.9.9.9.9.9.9.9.9.9.9.9.9.9.9.9.9.9.9.9.9.9.9.9.9.9.9.9.9.9.9.9.9.9.9.9.0.0.0.0.i.i.i.i.",
"i.i.i.i.9.9.9.9.9.9.9.9.9.9.9.9.9.9.9.9.9.9.9.9.9.9.9.9.9.9.9.9.9.9.9.9.9.9.9.9.9.9.9.9.9.9.9.9.9.9.9.9.9.9.9.9.0.0.0.0.i.i.i.i.",
"0.9.9.9.9.9.9.9.l.l.l.l.d.d.d.d.d.d.d.d.d.d.d.d.l.l.l.l.u.u.u.u.d.d.d.d.d.d.d.d.d.d.d.d.d.d.d.d.g.g.f.f.j.j.j.j.e.e.e.t.9.9.9.9.",
"0.9.9.9.9.9.9.9.l.l.l.l.d.d.d.d.d.d.d.d.d.d.d.d.l.l.l.l.u.u.u.u.d.d.d.d.d.d.d.d.d.d.d.d.d.d.d.d.g.g.f.f.j.j.j.j.e.e.t.t.9.9.9.9.",
"0.q.9.9.7.7.9.9.l.l.l.l.d.d.d.d.d.N d d d d d d f f f f s s s s d d d d d d d d d d d d d d D d.g.g.f.f.j.j.j.j.e.e.e.e.9.9.9.9.",
"0.0.9.9.7.9.9.9.l.l.l.l.d.d.d.d.d.d                 o o                                     x d.g.g.f.f.j.j.j.j.e.e.e.e.9.9.9.9.",
"0.0.0.0.9.9.9.9.z.z.z.z.d.d.d.d.c.f                                                         c z.j.j.j.j.p.p.p.p.u.u.u.u.9.9.9.9.",
"0.0.0.0.9.9.9.9.z.z.z.z.d.d.d.d.c.f . . . o o o o o o o o o o o o o o o o o o o o o o . . . c j.d.d.f.j.p.p.p.p.u.u.u.u.9.9.9.9.",
"0.0.0.0.9.9.9.9.z.z.z.z.d.L       4 e e e %.%.%.%.%.%.%.%.%.%.%.%.%.%.%.%.%.%.%.%.%.%.e e e 2       4.j.p.p.p.p.u.u.u.u.9.9.9.9.",
"0.0.0.0.9.9.9.9.z.z.z.z.d.L       4 e e e %.%.%.%.%.%.%.%.%.%.%.%.%.%.%.%.%.%.%.%.%.%.e e e 2       4.j.p.p.p.p.u.u.u.u.9.9.9.9.",
"0.0.0.0.q.q.q.q.c.c.c.c.u.H       4 e e e %.%.%.%.%.%.%.%.%.%.%.%.%.%.%.%.%.%.%.%.%.%.e e e 2       2.d.a.a.a.a.a.a.a.a.9.9.9.9.",
"0.0.0.0.q.q.q.q.c.x.,.,.H M $ $ $ 5 e e e #.#.#.$.%.%.%.%.%.%.%.%.%.%.%.%.%.%.$.#.#.#.e e e 4 $ $ $ S L K K a.a.a.a.a.a.9.9.9.9.",
"0.0.0.0.q.q.q.q.c.l.      $ e e e e e e e e e e a %.%.%.%.%.%.%.%.%.%.%.%.%.%.u e e e e e e e e e e O     o a.a.a.a.a.a.9.9.9.9.",
"0.0.0.0.q.q.q.q.c.l.      $ e e e e e e e e e e a %.%.%.%.%.%.%.%.%.%.%.%.%.%.u e e e e e e e e e e O     o a.a.a.a.a.a.9.9.9.9.",
"0.0.0.0.l.l.l.l.V.B.      $ e e e e e e e e e e a %.%.%.%.%.%.%.%.%.%.%.%.%.%.u e e e e e e e e e e O     o c.c.d.d.d.d.9.9.9.9.",
"0.0.0.0.l.l.l.l.V.B.      $ e e e e e e e e e e t y y y y y y y y y y y y y y r e e e e e e e e e e O     o c.c.d.d.d.d.9.9.9.9.",
"0.0.0.0.l.l.l.l.V.B.      $ e e e e e e e e e e e e e e e e e e e e e e e e e e e e e e e e e e e e O     o c.c.d.d.d.d.9.9.9.9.",
"0.0.0.0.j.l.l.l.V.B.      $ e e e e e e e e e e e e e e e e e e e e e e e e e e e e e e e e e e e e O     o c.c.d.d.d.d.9.9.9.9.",
"0.0.0.0.q.q.q.q.u.r.      $ e e e e e e e e e e e e e e e e e e e e e e e e e e e e e e e e e e e e O     o f.f.q.q.q.q.9.9.9.9.",
"0.0.0.0.q.q.q.q.u.r.      $ e e e e e e e { { { { { { { { { { { { { { { { { { { { { { e e e e e e e O     o f.f.q.q.q.q.9.9.9.9.",
"0.0.0.0.q.q.q.q.u.r.      $ e e e e e e e { { { { { { { { { { { { { { { { { { { { { { e e e e e e e O     o f.f.e.e.q.q.9.9.9.9.",
"0.0.0.0.q.q.q.q.u.r.      $ e e e e e e e { { { { { { { { { { { { { { { { { { { { { { e e e e e e e O     o f.f.e.e.e.q.9.9.9.9.",
"0.0.0.0.e.e.e.e.j.f.      $ e e e i p p /  . . . . . . . . . . . . . .&.v.v.v.v.v.v.v.6.6.6.*.e e e O     o l.l.i.i.p.d.0.0.9.9.",
"0.0.0.0.e.e.e.e.j.f.      $ e e e _ { { { +.+.+.+.+.+.+.+.+.+.+.+.+.+.>.G.G.G.G.G.G.G.G.G.G.M.e e e O     o l.l.i.u.p.p.0.0.9.9.",
"0.0.0.0.e.e.e.e.j.f.      $ e e e _ { { { +.+.+.+.+.+.+.+.+.+.+.+.+.+.>.G.G.G.G.G.G.G.G.G.G.M.e e e O     o l.l.u.u.u.u.0.9.9.9.",
"0.0.0.0.e.e.e.e.j.f.      $ e e e _ { { { +.+.+.+.+.+.+.+.+.+.+.+.+.+.>.G.G.G.G.G.G.G.G.G.G.M.e e e O     o l.l.u.u.u.u.0.9.9.9.",
"0.0.0.0.7.7.b & f f ' ' ' ^ e e e n.A.A.S.D.D.D.D.D.D.D.-.+.+.@.D.D.D.F.G.G.G.G.G.G.G.G.G.G.M.e e e ) ' ' ' d d s A e.e.9.9.9.9.",
"0.0.0.0.7.7.%     . +.+.+.} e e e Z.G.G.G.G.G.G.G.G.G.G.:.+.+.@.G.G.G.G.G.G.G.G.G.G.G.G.G.G.M.e e e o.+.+.O.      j e.e.9.9.9.9.",
"0.0.0.0.7.7.%     . +.+.+.} e e e Z.G.G.G.G.G.G.G.G.G.G.:.+.+.@.G.G.G.G.G.G.G.G.G.G.G.G.G.G.M.e e e o.+.+.O.      j e.e.9.9.9.9.",
"0.0.0.0.7.7.%     . +.+.+.} e e e Z.G.G.G.G.G.G.G.G.G.G.:.+.+.@.G.G.G.G.G.G.G.G.G.G.G.G.G.G.M.e e e o.+.+.O.      j e.e.9.9.9.9.",
"0.0.0.0.d.d.d     . +.+.+.+.+.+.+.D.G.G.G.G.G.G.G.G.G.G.:.+.+.+.+.+.+.>.G.G.G.G.G.G.G.G.G.G.N.+.+.+.+.+.+.O.      v c.c.9.9.9.9.",
"0.0.0.0.d.d.d     . +.+.+.+.+.+.+.D.G.G.G.G.G.G.G.G.G.G.:.+.+.+.+.+.+.>.G.G.G.G.G.G.G.G.G.G.N.+.+.+.+.+.+.O.      v c.c.9.9.9.9.",
"0.0.0.0.d.d.d     . +.+.+.+.+.+.+.D.G.G.G.G.G.G.G.G.G.G.:.+.+.+.+.+.+.>.G.G.G.G.G.G.G.G.G.G.N.+.+.+.+.+.+.O.      v c.c.9.9.9.9.",
"0.0.0.0.d.d.D z m m ! ! ! ] +.+.+.m.N.N.N.N.N.N.N.N.N.N.=.+.+.+.+.+.+.;.N.N.N.N.N.N.N.N.N.N.b.+.+.+.~ ! ! ! v v v Y c.c.9.9.9.9.",
"0.0.0.0.q.q.q.q.f.f.      6 +.+.+.+.+.+.+.+.+.+.+.+.+.+.+.+.+.+.+.+.+.+.+.+.+.+.+.+.+.+.+.+.+.+.+.+.-     o a.a.e.e.e.e.0.0.9.9.",
"0.0.0.0.q.q.q.q.f.f.      6 +.+.+.+.+.+.+.+.+.+.+.+.+.+.+.+.+.+.+.+.+.+.+.+.+.+.+.+.+.+.+.+.+.+.+.+.-     o a.a.e.e.e.e.0.0.9.9.",
"0.0.0.0.q.q.q.q.f.f.      6 +.+.+.+.+.+.+.+.+.+.+.+.+.+.+.+.+.+.+.+.+.+.+.+.+.+.+.+.+.+.+.+.+.+.+.+.-     o a.a.e.e.e.e.0.0.0.0.",
"0.0.0.0.q.q.q.q.f.f.4.4.3.F - - - w T T R +.+.+.+.+.+.+.+.+.+.+.+.+.+.+.+.+.+.+.+.+.O.T T T 9 - - - P 4.1.1.a.a.e.e.e.e.0.0.0.0.",
"0.9.9.9.d.d.d.d.d.d.d.d.j.U       < 0 0 q +.+.+.+.+.+.+.+.+.+.+.+.+.+.+.+.+.+.+.+.+.O.0 0 0 :       5.x.d.d.d.d.t.t.t.t.9.9.9.9.",
"0.9.9.9.d.d.d.d.d.d.d.d.j.U       < 0 0 q +.+.+.+.+.+.+.+.+.+.+.+.+.+.+.+.+.+.+.+.+.O.0 0 0 :       5.x.d.d.d.d.t.t.t.t.9.9.9.9.",
"0.0.9.9.d.a.d.d.d.d.a.a.h.U . . . < 0 0 q O.O.O.O.O.O.O.O.O.O.O.O.O.O.O.O.O.O.O.O.O.O.0 0 0 : . . . 5.z.d.d.d.d.t.t.t.t.9.9.9.9.",
"0.0.9.9.a.a.d.d.d.a.      @ 0 0 0 Q { { { 0 0 0 0 0 0 0 0 0 0 0 0 0 0 0 0 0 0 0 0 0 0 { { { W 0 0 0 +     o d.d.t.t.t.t.9.9.9.9.",
"0.0.0.0.q.q.q.q.u.r.      @ 0 0 0 Q { { { 0 0 0 0 0 0 0 0 0 0 0 0 0 0 0 0 0 0 0 0 0 0 { { { W 0 0 0 +     o f.f.u.u.u.u.9.9.9.9.",
"0.0.0.0.q.q.q.q.u.r.      @ 0 0 0 Q { { { 0 0 0 0 0 0 0 0 0 0 0 0 0 0 0 0 0 0 0 0 0 0 { { { W 0 0 0 +     o f.f.u.u.u.u.9.9.9.9.",
"0.0.0.0.q.q.<.G J H 3 3 3 8 ( ( ( [ { { { E E E E E E E E E E E E E E E E E E E E E E { { { ` ( ( ( 7 3 3 3 Y Y H 2.u.u.9.9.9.9.",
"0.0.0.0.q.q.&     . +.+.+.+.+.+.+.| { { { { { { { { { { { { { { { { { { { { { { { { { { { {  .+.+.+.+.+.+.O.      l u.u.9.9.9.9.",
"0.0.0.0.w.w.*     . +.+.+.+.+.+.+.| { { { { { { { { { { { { { { { { { { { { { { { { { { { {  .+.+.+.+.+.+.O.      z d.d.9.9.9.9.",
"0.0.0.0.w.w.*     . +.+.+.+.+.+.+.| { { { { { { { { { { { { { { { { { { { { { { { { { { { {  .+.+.+.+.+.+.O.      z d.d.9.9.9.9.",
"0.0.0.0.w.w.*     . +.+.+.+.+.+.+.| { { { { { { { { { { > = = = = = = 1 { { { { { { { { { {  .+.+.+.+.+.+.O.      z d.d.9.9.9.9.",
"0.0.0.0.w.w.*     . +.+.+.+.+.+.+.| { { { { { { { { { { #             ; { { { { { { { { { {  .+.+.+.+.+.+.O.      z d.d.9.9.9.9.",
"0.0.0.0.q.q.&     . +.+.+.+.+.+.+.| { { { { { { { { { { #             ; { { { { { { { { { {  .+.+.+.+.+.+.O.      z a.a.9.9.9.9.",
"0.0.0.0.q.q.s X o o O.O.O.O.O.O.O.| { { { { { { { { { { #             ; { { { { { { { { { {  .O.O.O.O.O.O.O.o o o z a.a.9.9.9.9.",
"0.0.0.0.q.q.q.q.j.d.              < 0 0 0 0 0 0 :                             , 0 0 0 0 0 0 :             o y.y.a.a.a.a.9.9.9.9.",
"0.0.0.0.q.q.q.q.j.d.              < 0 0 0 0 0 0 :                             , 0 0 0 0 0 0 :             o y.y.a.a.a.a.9.9.9.9.",
"0.0.0.0.7.7.7.7.a.a.              < 0 0 0 0 0 0 :                             , 0 0 0 0 0 0 :             X w.w.9.9.9.9.9.9.9.9.",
"0.0.0.0.7.7.7.7.a.a.z z g g g g l Z ....X.X.X.X.B l l l l l l l k k k k h h h C X.X.X.X.....V l l l l l h k w.w.9.9.9.9.9.9.9.9.",
"0.0.0.0.7.7.7.7.a.a.a.a.8.8.8.8.e.e.e.e.a.a.a.a.e.e.e.e.u.u.u.u.e.e.e.e.0.0.0.0.a.a.a.a.u.u.u.u.e.e.e.e.w.w.w.w.9.9.9.9.9.9.9.9.",
"0.0.0.0.7.7.7.7.a.a.a.a.8.8.8.8.e.e.e.e.a.a.a.a.e.e.e.e.u.u.u.u.e.e.e.e.0.0.0.0.a.a.a.a.u.u.u.u.e.e.e.e.w.w.w.w.9.9.9.9.9.9.9.9.",
"C.C.C.C.C.C.C.C.C.C.C.C.C.C.C.C.C.C.C.C.C.C.C.C.C.C.C.C.C.C.C.C.C.C.C.C.C.C.C.C.C.C.C.C.C.C.C.C.C.C.C.C.C.C.C.C.C.C.C.C.C.C.C.C.",
"C.C.C.C.C.C.C.C.C.C.C.C.C.C.C.C.C.C.C.C.C.C.C.C.C.C.C.C.C.C.C.C.C.C.C.C.C.C.C.C.C.C.C.C.C.C.C.C.C.C.C.C.C.C.C.C.C.C.C.C.C.C.C.C.",
"C.C.C.C.C.C.C.C.C.C.C.C.C.C.C.C.C.C.C.C.C.C.C.C.C.C.C.C.C.C.C.C.C.C.C.C.C.C.C.C.C.C.C.C.C.C.C.C.C.C.C.C.C.C.C.C.C.C.C.C.C.C.C.C.",
"C.C.C.C.C.C.C.C.C.C.C.C.C.C.C.C.C.C.C.C.C.C.C.C.C.C.C.C.C.C.C.C.C.C.C.C.C.C.C.C.C.C.C.C.C.C.C.C.C.C.C.C.C.C.C.C.C.C.C.C.C.C.C.C."
};
