/* XPM */
static char * chest1_xpm[] = {
"64 64 17 1",
" 	c #9C9FAE",
".	c #9396A5",
"+	c #231A01",
"@	c #9497A6",
"#	c #9095A4",
"$	c #A3A8B9",
"%	c #DAA402",
"&	c #A1A5B5",
"*	c #9799A8",
"=	c #000000",
"-	c #622C0C",
";	c #33180A",
">	c #49220E",
",	c #1E0E05",
"'	c #0D0602",
")	c #441E08",
"!	c #A27A02",
"    ....................++++++++++++++++....................    ",
"    ....................++++++++++++++++....................    ",
"    ....................++++++++++++++++....................    ",
"    ....................++++++++++++++++....................    ",
"@@@@####$$$$++++++++++++%%%%%%%%%%%%%%%%++++++++++++&&&&****....",
"@@@@####$$$$++++++++++++%%%%%%%%%%%%%%%%++++++++++++&&&&****....",
"@@@@####$$$$++++++++++++%%%%%%%%%%%%%%%%++++++++++++&&&&****....",
"@@@@####$$$$++++++++++++%%%%%%%%%%%%%%%%++++++++++++&&&&****....",
"============----------------------------------------============",
"============----------------------------------------============",
"============----------------------------------------============",
"============----------------------------------------============",
"====--------------------------------------------------------====",
"====--------------------------------------------------------====",
"====--------------------------------------------------------====",
"====--------------------------------------------------------====",
"====;;;;>>>>>>>>>>>>>>>>>>>>>>>>>>>>>>>>>>>>>>>>>>>>>>>>;;;;====",
"====;;;;>>>>>>>>>>>>>>>>>>>>>>>>>>>>>>>>>>>>>>>>>>>>>>>>;;;;====",
"====;;;;>>>>>>>>>>>>>>>>>>>>>>>>>>>>>>>>>>>>>>>>>>>>>>>>;;;;====",
"====;;;;>>>>>>>>>>>>>>>>>>>>>>>>>>>>>>>>>>>>>>>>>>>>>>>>;;;;====",
"====,,,,,,,,;;;;;;;;;;;;;;;;;;;;;;;;;;;;;;;;;;;;;;;;,,,,,,,,====",
"====,,,,,,,,;;;;;;;;;;;;;;;;;;;;;;;;;;;;;;;;;;;;;;;;,,,,,,,,====",
"====,,,,,,,,;;;;;;;;;;;;;;;;;;;;;;;;;;;;;;;;;;;;;;;;,,,,,,,,====",
"====,,,,,,,,;;;;;;;;;;;;;;;;;;;;;;;;;;;;;;;;;;;;;;;;,,,,,,,,====",
"====,,,,'''',,,,,,,,,,,,,,,,,,,,,,,,,,,,,,,,,,,,,,,,'''',,,,====",
"====,,,,'''',,,,,,,,,,,,,,,,,,,,,,,,,,,,,,,,,,,,,,,,'''',,,,====",
"====,,,,'''',,,,,,,,,,,,,,,,,,,,,,,,,,,,,,,,,,,,,,,,'''',,,,====",
"====,,,,'''',,,,,,,,,,,,,,,,,,,,,,,,,,,,,,,,,,,,,,,,'''',,,,====",
"===='''''''''''''''',,,,'''',,,,,,,,'''',,,,''''''''''''''''====",
"===='''''''''''''''',,,,'''',,,,,,,,'''',,,,''''''''''''''''====",
"===='''''''''''''''',,,,'''',,,,,,,,'''',,,,''''''''''''''''====",
"===='''''''''''''''',,,,'''',,,,,,,,'''',,,,''''''''''''''''====",
"====''''''''''''''''''''''''''''''''''''''''''''''''''''''''====",
"====''''''''''''''''''''''''''''''''''''''''''''''''''''''''====",
"====''''''''''''''''''''''''''''''''''''''''''''''''''''''''====",
"====''''''''''''''''''''''''''''''''''''''''''''''''''''''''====",
"====++++++++++++''''''''''''''''''''''''''''''''++++++++++++====",
"====++++++++++++''''''''''''''''''''''''''''''''++++++++++++====",
"====++++++++++++''''''''''''''''''''''''''''''''++++++++++++====",
"====++++++++++++''''''''''''''''''''''''''''''''++++++++++++====",
"====%%%%++++----++++%%%%%%%%''''''''%%%%%%%%++++----++++%%%%====",
"====%%%%++++----++++%%%%%%%%''''''''%%%%%%%%++++----++++%%%%====",
"====%%%%++++----++++%%%%%%%%''''''''%%%%%%%%++++----++++%%%%====",
"====%%%%++++----++++%%%%%%%%''''''''%%%%%%%%++++----++++%%%%====",
"====%%%%++++--------++++%%%%%%%%%%%%%%%%++++--------++++%%%%====",
"====%%%%++++--------++++%%%%%%%%%%%%%%%%++++--------++++%%%%====",
"====%%%%++++--------++++%%%%%%%%%%%%%%%%++++--------++++%%%%====",
"====%%%%++++--------++++%%%%%%%%%%%%%%%%++++--------++++%%%%====",
"====%%%%++++------------++++++++++++++++------------++++%%%%====",
"====%%%%++++------------++++++++++++++++------------++++%%%%====",
"====%%%%++++------------++++++++++++++++------------++++%%%%====",
"====%%%%++++------------++++++++++++++++------------++++%%%%====",
"====%%%%++++))))))))))))))))))))))))))))))))))))))))++++%%%%====",
"====%%%%++++))))))))))))))))))))))))))))))))))))))))++++%%%%====",
"====%%%%++++))))))))))))))))))))))))))))))))))))))))++++%%%%====",
"====%%%%++++))))))))))))))))))))))))))))))))))))))))++++%%%%====",
"====!!!!++++----------------------------------------++++!!!!====",
"====!!!!++++----------------------------------------++++!!!!====",
"====!!!!++++----------------------------------------++++!!!!====",
"====!!!!++++----------------------------------------++++!!!!====",
"================================================================",
"================================================================",
"================================================================",
"================================================================"};