/* XPM */
static char * chest0_xpm[] = {
"64 64 7 1",
" 	c #000000",
".	c #9396A5",
"+	c #A27A02",
"@	c #DAA402",
"#	c #231A01",
"$	c #441E08",
"%	c #622C0C",
"            ........................................            ",
"            ........................................            ",
"            ........................................            ",
"            ........................................            ",
"    ++++++++                                        ++++++++    ",
"    ++++++++                                        ++++++++    ",
"    ++++++++                                        ++++++++    ",
"    ++++++++                                        ++++++++    ",
"    @@@@####$$$$$$$$$$$$$$$$$$$$$$$$$$$$$$$$$$$$$$$$####@@@@    ",
"    @@@@####$$$$$$$$$$$$$$$$$$$$$$$$$$$$$$$$$$$$$$$$####@@@@    ",
"    @@@@####$$$$$$$$$$$$$$$$$$$$$$$$$$$$$$$$$$$$$$$$####@@@@    ",
"    @@@@####$$$$$$$$$$$$$$$$$$$$$$$$$$$$$$$$$$$$$$$$####@@@@    ",
"    @@@@####%%%%%%%%%%%%%%%%%%%%%%%%%%%%%%%%%%%%%%%%####@@@@    ",
"    @@@@####%%%%%%%%%%%%%%%%%%%%%%%%%%%%%%%%%%%%%%%%####@@@@    ",
"    @@@@####%%%%%%%%%%%%%%%%%%%%%%%%%%%%%%%%%%%%%%%%####@@@@    ",
"    @@@@####%%%%%%%%%%%%%%%%%%%%%%%%%%%%%%%%%%%%%%%%####@@@@    ",
"    @@@@####$$$$$$$$$$$$$$$$$$$$$$$$$$$$$$$$$$$$$$$$####@@@@    ",
"    @@@@####$$$$$$$$$$$$$$$$$$$$$$$$$$$$$$$$$$$$$$$$####@@@@    ",
"    @@@@####$$$$$$$$$$$$$$$$$$$$$$$$$$$$$$$$$$$$$$$$####@@@@    ",
"    @@@@####$$$$$$$$$$$$$$$$$$$$$$$$$$$$$$$$$$$$$$$$####@@@@    ",
"    @@@@####%%%%%%%%%%%%%%%%%%%%%%%%%%%%%%%%%%%%%%%%####@@@@    ",
"    @@@@####%%%%%%%%%%%%%%%%%%%%%%%%%%%%%%%%%%%%%%%%####@@@@    ",
"    @@@@####%%%%%%%%%%%%%%%%%%%%%%%%%%%%%%%%%%%%%%%%####@@@@    ",
"    @@@@####%%%%%%%%%%%%%%%%%%%%%%%%%%%%%%%%%%%%%%%%####@@@@    ",
"    @@@@####%%%%%%%%%%%%################%%%%%%%%%%%%####@@@@    ",
"    @@@@####%%%%%%%%%%%%################%%%%%%%%%%%%####@@@@    ",
"    @@@@####%%%%%%%%%%%%################%%%%%%%%%%%%####@@@@    ",
"    @@@@####%%%%%%%%%%%%################%%%%%%%%%%%%####@@@@    ",
"    ####################@@@@@@@@@@@@@@@@####################    ",
"    ####################@@@@@@@@@@@@@@@@####################    ",
"    ####################@@@@@@@@@@@@@@@@####################    ",
"    ####################@@@@@@@@@@@@@@@@####################    ",
"    @@@@@@@@@@@@@@@@@@@@@@@@########@@@@@@@@@@@@@@@@@@@@@@@@    ",
"    @@@@@@@@@@@@@@@@@@@@@@@@########@@@@@@@@@@@@@@@@@@@@@@@@    ",
"    @@@@@@@@@@@@@@@@@@@@@@@@########@@@@@@@@@@@@@@@@@@@@@@@@    ",
"    @@@@@@@@@@@@@@@@@@@@@@@@########@@@@@@@@@@@@@@@@@@@@@@@@    ",
"    ############@@@@@@@@####        ####@@@@@@@@############    ",
"    ############@@@@@@@@####        ####@@@@@@@@############    ",
"    ############@@@@@@@@####        ####@@@@@@@@############    ",
"    ############@@@@@@@@####        ####@@@@@@@@############    ",
"    @@@@####%%%%####@@@@@@@@        @@@@@@@@####%%%%####@@@@    ",
"    @@@@####%%%%####@@@@@@@@        @@@@@@@@####%%%%####@@@@    ",
"    @@@@####%%%%####@@@@@@@@        @@@@@@@@####%%%%####@@@@    ",
"    @@@@####%%%%####@@@@@@@@        @@@@@@@@####%%%%####@@@@    ",
"    @@@@####%%%%%%%%####@@@@@@@@@@@@@@@@####%%%%%%%%####@@@@    ",
"    @@@@####%%%%%%%%####@@@@@@@@@@@@@@@@####%%%%%%%%####@@@@    ",
"    @@@@####%%%%%%%%####@@@@@@@@@@@@@@@@####%%%%%%%%####@@@@    ",
"    @@@@####%%%%%%%%####@@@@@@@@@@@@@@@@####%%%%%%%%####@@@@    ",
"    @@@@####%%%%%%%%%%%%################%%%%%%%%%%%%####@@@@    ",
"    @@@@####%%%%%%%%%%%%################%%%%%%%%%%%%####@@@@    ",
"    @@@@####%%%%%%%%%%%%################%%%%%%%%%%%%####@@@@    ",
"    @@@@####%%%%%%%%%%%%################%%%%%%%%%%%%####@@@@    ",
"    @@@@####$$$$$$$$$$$$$$$$$$$$$$$$$$$$$$$$$$$$$$$$####@@@@    ",
"    @@@@####$$$$$$$$$$$$$$$$$$$$$$$$$$$$$$$$$$$$$$$$####@@@@    ",
"    @@@@####$$$$$$$$$$$$$$$$$$$$$$$$$$$$$$$$$$$$$$$$####@@@@    ",
"    @@@@####$$$$$$$$$$$$$$$$$$$$$$$$$$$$$$$$$$$$$$$$####@@@@    ",
"    ++++####%%%%%%%%%%%%%%%%%%%%%%%%%%%%%%%%%%%%%%%%####++++    ",
"    ++++####%%%%%%%%%%%%%%%%%%%%%%%%%%%%%%%%%%%%%%%%####++++    ",
"    ++++####%%%%%%%%%%%%%%%%%%%%%%%%%%%%%%%%%%%%%%%%####++++    ",
"    ++++####%%%%%%%%%%%%%%%%%%%%%%%%%%%%%%%%%%%%%%%%####++++    ",
"                                                                ",
"                                                                ",
"                                                                ",
"                                                                "};