/* XPM */
static char * empty_xpm[] = {
"64 64 95 2",
"  	c #9C9FAE",
". 	c #9396A5",
"+ 	c #9497A6",
"@ 	c #9095A4",
"# 	c #A3A8B9",
"$ 	c #9FA2B1",
"% 	c #9FA2B2",
"& 	c #A3A9B9",
"* 	c #999FAF",
"= 	c #9FA7B8",
"- 	c #A1A5B5",
"; 	c #9799A8",
"> 	c #9395A4",
", 	c #A4A8B8",
"' 	c #9FA3B3",
") 	c #A7AEBF",
"! 	c #A3A7B7",
"~ 	c #9EA3B2",
"{ 	c #9EA1B0",
"] 	c #A8AFC0",
"^ 	c #A5ABBC",
"/ 	c #A0A5B5",
"( 	c #9DA0AF",
"_ 	c #9A9EAE",
": 	c #9598A7",
"< 	c #A5ACBD",
"[ 	c #989DAD",
"} 	c #9FA4B3",
"| 	c #A2A9B9",
"1 	c #9FA4B4",
"2 	c #A1A6B6",
"3 	c #9FA8B9",
"4 	c #9AA1B1",
"5 	c #9AA0B0",
"6 	c #A2A8B8",
"7 	c #A9B1C3",
"8 	c #ADB2C2",
"9 	c #ABAEBE",
"0 	c #AFB4C5",
"a 	c #B2BACC",
"b 	c #ADB1C1",
"c 	c #ADB1C2",
"d 	c #B0B7C9",
"e 	c #A4ACBD",
"f 	c #9698A7",
"g 	c #999EAE",
"h 	c #979CAB",
"i 	c #9FA6B7",
"j 	c #9699A8",
"k 	c #9498A8",
"l 	c #A1A7B7",
"m 	c #A5ABBB",
"n 	c #A7AFC0",
"o 	c #A4A9B9",
"p 	c #A0A6B7",
"q 	c #A1A6B7",
"r 	c #A4A8B9",
"s 	c #9B9FAF",
"t 	c #8E92A1",
"u 	c #A0A4B4",
"v 	c #9EA5B6",
"w 	c #A3AABB",
"x 	c #B1B8C9",
"y 	c #A9B2C3",
"z 	c #AFB5C6",
"A 	c #A4ABBC",
"B 	c #9EA6B7",
"C 	c #A0A5B4",
"D 	c #9FA1B1",
"E 	c #989CAB",
"F 	c #A4ABBB",
"G 	c #9CA1B2",
"H 	c #9DA3B3",
"I 	c #A2A5B4",
"J 	c #A6ABBC",
"K 	c #989BAA",
"L 	c #999FAE",
"M 	c #A3A9BA",
"N 	c #9AA0B1",
"O 	c #A0A4B3",
"P 	c #989CAC",
"Q 	c #9399A8",
"R 	c #B0B7C8",
"S 	c #A3AABA",
"T 	c #AFB4C6",
"U 	c #9EA1B1",
"V 	c #8E91A0",
"W 	c #9AA2B2",
"X 	c #9094A3",
"Y 	c #969BAA",
"Z 	c #989EAE",
"` 	c #959BAB",
" .	c #9497A5",
"..	c #9399A9",
"+.	c #9196A5",
"        . . . . . . . . . . . . . . . . . . . . . . . . . . . . . . . . . . . . . . . . . . . . . . . . . . . . . . . .         ",
"        . . . . . . . . . . . . . . . . . . . . . . . . . . . . . . . . . . . . . . . . . . . . . . . . . . . . . . . .         ",
"        . . . . . . . . . . . . . . . . . . . . . . . . . . . . . . . . . . . . . . . . . . . . . . . . . . . . . . . .         ",
"        . . . . . . . . . . . . . . . . . . . . . . . . . . . . . . . . . . . . . . . . . . . . . . . . . . . . . . . .         ",
"+ + + + @ @ @ @ # # # # $ $ $ $ % % % % $ $ $ $ & & & & * * * * $ $ $ $ % % % % % % % % $ $ $ $ = = = = - - - - ; ; ; ; . . . . ",
"+ + + + @ @ @ @ # # # # $ $ $ $ % % % % $ $ $ $ & & & & * * * * $ $ $ $ % % % % % % % % $ $ $ $ = = = = - - - - ; ; ; ; . . . . ",
"+ + + + @ @ @ @ # # # # $ $ $ $ % % % % $ $ $ $ & & & & * * * * $ $ $ $ % % % % % % % % $ $ $ $ = = = = - - - - ; ; ; ; . . . . ",
"+ + + + @ @ @ @ # # # # $ $ $ $ % % % % $ $ $ $ & & & & * * * * $ $ $ $ % % % % % % % % $ $ $ $ = = = = - - - - ; ; ; ; . . . . ",
"+ + + + > > > > , , , , ' ' ' ' ) ) ) ) , , , , ! ! ! ! ~ ~ ~ ~ { { { { ] ] ] ] ^ ^ ^ ^ , , , , / / / / ( ( ( ( _ _ _ _ . . . . ",
"+ + + + > > > > , , , , ' ' ' ' ) ) ) ) , , , , ! ! ! ! ~ ~ ~ ~ { { { { ] ] ] ] ^ ^ ^ ^ , , , , / / / / ( ( ( ( _ _ _ _ . . . . ",
"+ + + + > > > > , , , , ' ' ' ' ) ) ) ) , , , , ! ! ! ! ~ ~ ~ ~ { { { { ] ] ] ] ^ ^ ^ ^ , , , , / / / / ( ( ( ( _ _ _ _ . . . . ",
"+ + + + > > > > , , , , ' ' ' ' ) ) ) ) , , , , ! ! ! ! ~ ~ ~ ~ { { { { ] ] ] ] ^ ^ ^ ^ , , , , / / / / ( ( ( ( _ _ _ _ . . . . ",
"+ + + + : : : : < < < < [ [ [ [ } } } } | | | | 1 1 1 1 2 2 2 2 3 3 3 3 { { { { | | | | 2 2 2 2 ' ' ' ' 4 4 4 4 5 5 5 5 . . . . ",
"+ + + + : : : : < < < < [ [ [ [ } } } } | | | | 1 1 1 1 2 2 2 2 3 3 3 3 { { { { | | | | 2 2 2 2 ' ' ' ' 4 4 4 4 5 5 5 5 . . . . ",
"+ + + + : : : : < < < < [ [ [ [ } } } } | | | | 1 1 1 1 2 2 2 2 3 3 3 3 { { { { | | | | 2 2 2 2 ' ' ' ' 4 4 4 4 5 5 5 5 . . . . ",
"+ + + + : : : : < < < < [ [ [ [ } } } } | | | | 1 1 1 1 2 2 2 2 3 3 3 3 { { { { | | | | 2 2 2 2 ' ' ' ' 4 4 4 4 5 5 5 5 . . . . ",
"+ + + + 6 6 6 6 7 7 7 7 8 8 8 8 9 9 9 9 8 8 8 8 0 0 0 0 6 6 6 6 a a a a 9 9 9 9 b b b b c c c c d d d d e e e e $ $ $ $ . . . . ",
"+ + + + 6 6 6 6 7 7 7 7 8 8 8 8 9 9 9 9 8 8 8 8 0 0 0 0 6 6 6 6 a a a a 9 9 9 9 b b b b c c c c d d d d e e e e $ $ $ $ . . . . ",
"+ + + + 6 6 6 6 7 7 7 7 8 8 8 8 9 9 9 9 8 8 8 8 0 0 0 0 6 6 6 6 a a a a 9 9 9 9 b b b b c c c c d d d d e e e e $ $ $ $ . . . . ",
"+ + + + 6 6 6 6 7 7 7 7 8 8 8 8 9 9 9 9 8 8 8 8 0 0 0 0 6 6 6 6 a a a a 9 9 9 9 b b b b c c c c d d d d e e e e $ $ $ $ . . . . ",
"+ + + + f f f f g g g g 2 2 2 2 $ $ $ $ $ $ $ $ $ $ $ $ & & & & h h h h $ $ $ $ $ $ $ $ $ $ $ $ $ $ $ $ i i i i j j j j . . . . ",
"+ + + + f f f f g g g g 2 2 2 2 $ $ $ $ $ $ $ $ $ $ $ $ & & & & h h h h $ $ $ $ $ $ $ $ $ $ $ $ $ $ $ $ i i i i j j j j . . . . ",
"+ + + + f f f f g g g g 2 2 2 2 $ $ $ $ $ $ $ $ $ $ $ $ & & & & h h h h $ $ $ $ $ $ $ $ $ $ $ $ $ $ $ $ i i i i j j j j . . . . ",
"+ + + + f f f f g g g g 2 2 2 2 $ $ $ $ $ $ $ $ $ $ $ $ & & & & h h h h $ $ $ $ $ $ $ $ $ $ $ $ $ $ $ $ i i i i j j j j . . . . ",
"+ + + + k k k k l l l l m m m m m m m m n n n n o o o o p p p p q q q q , , , , n n n n r r r r | | | | & & & & s s s s . . . . ",
"+ + + + k k k k l l l l m m m m m m m m n n n n o o o o p p p p q q q q , , , , n n n n r r r r | | | | & & & & s s s s . . . . ",
"+ + + + k k k k l l l l m m m m m m m m n n n n o o o o p p p p q q q q , , , , n n n n r r r r | | | | & & & & s s s s . . . . ",
"+ + + + k k k k l l l l m m m m m m m m n n n n o o o o p p p p q q q q , , , , n n n n r r r r | | | | & & & & s s s s . . . . ",
"+ + + + t t t t 6 6 6 6 { { { { & & & & u u u u l l l l [ [ [ [ { { { { 2 2 2 2 2 2 2 2 } } } } v v v v { { { { j j j j . . . . ",
"+ + + + t t t t 6 6 6 6 { { { { & & & & u u u u l l l l [ [ [ [ { { { { 2 2 2 2 2 2 2 2 } } } } v v v v { { { { j j j j . . . . ",
"+ + + + t t t t 6 6 6 6 { { { { & & & & u u u u l l l l [ [ [ [ { { { { 2 2 2 2 2 2 2 2 } } } } v v v v { { { { j j j j . . . . ",
"+ + + + t t t t 6 6 6 6 { { { { & & & & u u u u l l l l [ [ [ [ { { { { 2 2 2 2 2 2 2 2 } } } } v v v v { { { { j j j j . . . . ",
"+ + + + { { { { a a a a w w w w 8 8 8 8 x x x x 8 8 8 8 0 0 0 0 y y y y 8 8 8 8 x x x x z z z z c c c c A A A A < < < < . . . . ",
"+ + + + { { { { a a a a w w w w 8 8 8 8 x x x x 8 8 8 8 0 0 0 0 y y y y 8 8 8 8 x x x x z z z z c c c c A A A A < < < < . . . . ",
"+ + + + { { { { a a a a w w w w 8 8 8 8 x x x x 8 8 8 8 0 0 0 0 y y y y 8 8 8 8 x x x x z z z z c c c c A A A A < < < < . . . . ",
"+ + + + { { { { a a a a w w w w 8 8 8 8 x x x x 8 8 8 8 0 0 0 0 y y y y 8 8 8 8 x x x x z z z z c c c c A A A A < < < < . . . . ",
"+ + + + : : : : B B B B C C C C $ $ $ $ D D D D $ $ $ $ E E E E F F F F $ $ $ $ D D D D $ $ $ $ - - - - 4 4 4 4 j j j j . . . . ",
"+ + + + : : : : B B B B C C C C $ $ $ $ D D D D $ $ $ $ E E E E F F F F $ $ $ $ D D D D $ $ $ $ - - - - 4 4 4 4 j j j j . . . . ",
"+ + + + : : : : B B B B C C C C $ $ $ $ D D D D $ $ $ $ E E E E F F F F $ $ $ $ D D D D $ $ $ $ - - - - 4 4 4 4 j j j j . . . . ",
"+ + + + : : : : B B B B C C C C $ $ $ $ D D D D $ $ $ $ E E E E F F F F $ $ $ $ D D D D $ $ $ $ - - - - 4 4 4 4 j j j j . . . . ",
"+ + + + G G G G H H H H I I I I I I I I r r r r m m m m 6 6 6 6 ' ' ' ' I I I I ! ! ! ! , , , , J J J J H H H H K K K K . . . . ",
"+ + + + G G G G H H H H I I I I I I I I r r r r m m m m 6 6 6 6 ' ' ' ' I I I I ! ! ! ! , , , , J J J J H H H H K K K K . . . . ",
"+ + + + G G G G H H H H I I I I I I I I r r r r m m m m 6 6 6 6 ' ' ' ' I I I I ! ! ! ! , , , , J J J J H H H H K K K K . . . . ",
"+ + + + G G G G H H H H I I I I I I I I r r r r m m m m 6 6 6 6 ' ' ' ' I I I I ! ! ! ! , , , , J J J J H H H H K K K K . . . . ",
"+ + + + : : : : L L L L w w w w 2 2 2 2 M M M M { { { { l l l l N N N N u u u u & & & & u u u u O O O O v v v v P P P P . . . . ",
"+ + + + : : : : L L L L w w w w 2 2 2 2 M M M M { { { { l l l l N N N N u u u u & & & & u u u u O O O O v v v v P P P P . . . . ",
"+ + + + : : : : L L L L w w w w 2 2 2 2 M M M M { { { { l l l l N N N N u u u u & & & & u u u u O O O O v v v v P P P P . . . . ",
"+ + + + : : : : L L L L w w w w 2 2 2 2 M M M M { { { { l l l l N N N N u u u u & & & & u u u u O O O O v v v v P P P P . . . . ",
"+ + + + Q Q Q Q R R R R 9 9 9 9 x x x x 8 8 8 8 R R R R S S S S 9 9 9 9 0 0 0 0 T T T T c c c c 7 7 7 7 8 8 8 8 $ $ $ $ . . . . ",
"+ + + + Q Q Q Q R R R R 9 9 9 9 x x x x 8 8 8 8 R R R R S S S S 9 9 9 9 0 0 0 0 T T T T c c c c 7 7 7 7 8 8 8 8 $ $ $ $ . . . . ",
"+ + + + Q Q Q Q R R R R 9 9 9 9 x x x x 8 8 8 8 R R R R S S S S 9 9 9 9 0 0 0 0 T T T T c c c c 7 7 7 7 8 8 8 8 $ $ $ $ . . . . ",
"+ + + + Q Q Q Q R R R R 9 9 9 9 x x x x 8 8 8 8 R R R R S S S S 9 9 9 9 0 0 0 0 T T T T c c c c 7 7 7 7 8 8 8 8 $ $ $ $ . . . . ",
"+ + + + : : : : - - - - L L L L U U U U U U U U U U U U U U U U H H H H u u u u U U U U U U U U U U U U E E E E 5 5 5 5 . . . . ",
"+ + + + : : : : - - - - L L L L U U U U U U U U U U U U U U U U H H H H u u u u U U U U U U U U U U U U E E E E 5 5 5 5 . . . . ",
"+ + + + : : : : - - - - L L L L U U U U U U U U U U U U U U U U H H H H u u u u U U U U U U U U U U U U E E E E 5 5 5 5 . . . . ",
"+ + + + : : : : - - - - L L L L U U U U U U U U U U U U U U U U H H H H u u u u U U U U U U U U U U U U E E E E 5 5 5 5 . . . . ",
"+ + + + V V V V W W W W X X X X Y Y Y Y W W W W Y Y Y Y Z Z Z Z ` ` ` `  . . . .W W W W Z Z Z Z Y Y Y Y ........+.+.+.+.. . . . ",
"+ + + + V V V V W W W W X X X X Y Y Y Y W W W W Y Y Y Y Z Z Z Z ` ` ` `  . . . .W W W W Z Z Z Z Y Y Y Y ........+.+.+.+.. . . . ",
"+ + + + V V V V W W W W X X X X Y Y Y Y W W W W Y Y Y Y Z Z Z Z ` ` ` `  . . . .W W W W Z Z Z Z Y Y Y Y ........+.+.+.+.. . . . ",
"+ + + + V V V V W W W W X X X X Y Y Y Y W W W W Y Y Y Y Z Z Z Z ` ` ` `  . . . .W W W W Z Z Z Z Y Y Y Y ........+.+.+.+.. . . . ",
"x x x x x x x x x x x x x x x x x x x x x x x x x x x x x x x x x x x x x x x x x x x x x x x x x x x x x x x x x x x x x x x x ",
"x x x x x x x x x x x x x x x x x x x x x x x x x x x x x x x x x x x x x x x x x x x x x x x x x x x x x x x x x x x x x x x x ",
"x x x x x x x x x x x x x x x x x x x x x x x x x x x x x x x x x x x x x x x x x x x x x x x x x x x x x x x x x x x x x x x x ",
"x x x x x x x x x x x x x x x x x x x x x x x x x x x x x x x x x x x x x x x x x x x x x x x x x x x x x x x x x x x x x x x x "};
