/* XPM */
static char * player01_xpm[] = {
"64 64 77 1",
" 	c #9C9FAE",
".	c #9396A5",
"+	c #9799A8",
"@	c #A1A5B5",
"#	c #9FA7B8",
"$	c #9FA2B1",
"%	c #9FA2B2",
"&	c #101E29",
"*	c #999FAF",
"=	c #A3A8B9",
"-	c #9095A4",
";	c #9497A6",
">	c #F8F8F8",
",	c #9A9EAE",
"'	c #9DA0AF",
")	c #A0A5B5",
"!	c #A4A8B8",
"~	c #9EA1B0",
"{	c #9EA3B2",
"]	c #A7AEBF",
"^	c #9FA3B3",
"/	c #9395A4",
"(	c #9AA0B0",
"_	c #9AA1B1",
":	c #A1A6B6",
"<	c #9FA4B3",
"[	c #989DAD",
"}	c #A5ACBD",
"|	c #9598A7",
"1	c #A4ACBD",
"2	c #ABAEBE",
"3	c #ADB2C2",
"4	c #A9B1C3",
"5	c #A2A8B8",
"6	c #EDA579",
"7	c #9699A8",
"8	c #9FA6B7",
"9	c #999EAE",
"0	c #9698A7",
"a	c #9B9FAF",
"b	c #A3A9B9",
"c	c #A5ABBB",
"d	c #A1A7B7",
"e	c #9498A8",
"f	c #D17360",
"g	c #8E92A1",
"h	c #A4ABBC",
"i	c #A3AABB",
"j	c #B2BACC",
"k	c #A0A5B4",
"l	c #9EA6B7",
"m	c #9AD47D",
"n	c #989BAA",
"o	c #9DA3B3",
"p	c #A6ABBC",
"q	c #9CA1B2",
"r	c #038FCD",
"s	c #989CAC",
"t	c #9EA5B6",
"u	c #A0A4B3",
"v	c #999FAE",
"w	c #4B9620",
"x	c #B0B7C8",
"y	c #9399A8",
"z	c #0763D0",
"A	c #989CAB",
"B	c #9EA1B1",
"C	c #9196A5",
"D	c #9399A9",
"E	c #969BAA",
"F	c #989EAE",
"G	c #9094A3",
"H	c #9AA2B2",
"I	c #8E91A0",
"J	c #9497A5",
"K	c #959BAB",
"L	c #B1B8C9",
"    ........................................................    ",
"    ........................................................    ",
"    ........................................................    ",
"    ........................................................    ",
"....++++@@@@####$$$$%&&&&&&%$$$$****&&&&&&$$%%%%$$$$====----;;;;",
"....++++@@@@####$$$$%&&&&&&%$$$$****&&&&&&$$%%%%$$$$====----;;;;",
"....++++@@@@####$$$$%&&&&&&%$$$$****&&&&&&$$%%%%$$$$====----;;;;",
"....++++@@@@####$$&&&>>>>>>&&$$$*&&&>>>>>>&&%%%%$$$$====----;;;;",
"....,,,,''''))))!!&&&>>>>>>&&~~~{&&&>>>>>>&&]]]]^^^^!!!!////;;;;",
"....,,,,''''))))!!&&&>>>>>>&&~~~{&&&>>>>>>&&]]]]^^^^!!!!////;;;;",
"....,,,,''''))))!!&&&>>>>>>&&&&&&&&&>>>>>>&&]]]]^^^^!!!!////;;;;",
"....,,,,''''))))!!&&&>>>>>>&&&&&&&&&>>>>>>&&]]]]^^^^!!!!////;;;;",
"....((((____^^^^::&&&>>>>>>&&&&&&&&&>>>>>>&&<<<<[[[[}}}}||||;;;;",
"....((((____^^^&&&>>>>>>>>>>>>>>>>>>>>>>>>>>&&&<[[[[}}}}||||;;;;",
"....((((____^^^&&&>>>>>>>>>>>>>>>>>>>>>>>>>>&&&<[[[[}}}}||||;;;;",
"....((((____&&&>>>>>>>>>>>>>>>>>>>>>>>>>>>>>&&&<[[[[}}}}||||;;;;",
"....$$$$1111&&&>>>>>>>>>>>>>>>>>>>>>>>>>>>>>&&&2333344445555;;;;",
"....$$$$1111&&&>>>>>>>>>>>>>>>>>>>>>>>>>>>>>&&&2333344445555;;;;",
"....$$$$1111&&&>>>>>>>>>>>>>>>>>>>>>>>>>>>>>&&&2333344445555;;;;",
"....$$$$1111&&&>>>666666666666666666>>>>>>>>&&&2333344445555;;;;",
"....77778888&&&>>>666666666666666666>>>>>>>>&&&$::::99990000;;;;",
"....77778888&&&66666666666666666666666>>>>>>&&&$::::99990000;;;;",
"....77778888&&&66666666666666666666666>>>>>>&&&$::::99990000;;;;",
"....77778888&&&66666666666666666666666>>>>>>&&&$::::99990000;;;;",
"....aaaabbbb&&&66666666666666666666666>>>>>>&&&cccccddddeeee;;;;",
"....aaaabbbb&&&666&&&66666666&&&&66666>>>>>>&&&cccccddddeeee;;;;",
"....aaaabbbb&&&666&&&66666666&&&&66666>>>>>>&&&cccccddddeeee;;;;",
"....aaaabbbb&&&666&&&66666666&&&&66666>>>>>>&&&cccccddddeeee;;;;",
"....7777~~~~&&&fff&&&66666666&&&&fff66>>>>>>&&&b~~~~5555gggg;;;;",
"....7777~~~~&&&fff&&&66666666&&&&fff66>>>>>>&&&b~~~~5555gggg;;;;",
"....7777~~~~&&&66666666666666666666666>>>>>>&&&b~~~~5555gggg;;;;",
"....7777~~~~&&&66666666666666666666666>>>>>>&&&b~~~~5555gggg;;;;",
"....}}}}hhhh&&&66666666666666666666666>>>>>>&&&3iiiijjjj~~~~;;;;",
"....}}}}hhhh&&&66666666666666666666666>>>>>>&&&3iiiijjjj~~~~;;;;",
"....}}}}hhhh&&&>>>666666666666666666>>>>>>>>&&&3iiiijjjj~~~~;;;;",
"....}}}}hhhh&&&>>>666666666666666666>>>>>>>>&&&3iiiijjjj~~~~;;;;",
"....7777____&&&>>>>>>>>>>>>>>>>>>>>>>>>>>>>>&&&&&&kkllll||||;;;;",
"....7777____&&&>>>>>>>>>>>>>>>>>>>>>>>>>>>>>&&&&&&kkllll||||;;;;",
"....7777____&&&>>>>>>>>>>>>>>>>>>>>>>>>>>>>>&&&&&&kkllll||||;;;;",
"....7777____@@@&&&&&&&&&&&&&&&&&&&&&&&&&&&&&mmmmmm&&&lll||||;;;;",
"....nnnnooooppp&&&&&&&&&&&&&&&&&&&&&&&&&&&&&mmmmmm&&&oooqqqq;;;;",
"....nnnnooooppp&&&&&&&&&&&&&&&&&&&&&&&&&&&&&mmmmmm&&&oooqqqq;;;;",
"....nnnnooooppp&&&&&&mmrrrrrrrrrrmmmrrrrrrrr&&&mmm&&&oooqqqq;;;;",
"....nnnnooooppp&&&&&&mmrrrrrrrrrrmmmrrrrrrrr&&&mmm&&&oooqqqq;;;;",
"....ssssttttuuu&&&&&&mmrrrrrrrrrrmmmrrrrrrrr&&&mmm&&&vvv||||;;;;",
"....sssstttt&&&666&&&wwrrrrrrrrrrwww&&666666&&&www&&&vvv||||;;;;",
"....sssstttt&&&666&&&wwrrrrrrrrrrwww&&666666&&&www&&&vvv||||;;;;",
"....sssstttt&&&666&&&wwrrrrrrrrrrwww&&666666&&&www&&&vvv||||;;;;",
"....$$$$3333&&&666&&&wwrrrrrrrrrrwww&&666666&&&www&&&xxxyyyy;;;;",
"....$$$$3333&&&666&&&wwrrrrrrrrrrwww&&666666&&&www&&&xxxyyyy;;;;",
"....$$$$3333&&&666&&&wwrrrrrrrrrrwww&&666666&&&www&&&xxxyyyy;;;;",
"....$$$$3333444&&&&&&zzzzzzzzzzzzzzzzz&&&&&&www&&&22xxxxyyyy;;;;",
"....((((AAAABBB&&&&&&zzzzzzzzzzzzzzzzz&&&&&&www&&&vv@@@@||||;;;;",
"....((((AAAABBB&&&&&&zzzzzzzzzzzzzzzzz&&&&&&www&&&vv@@@@||||;;;;",
"....((((AAAABBBBBB&&&zz&&&&&&&&&&&&&zz&&&&&&&&&Bvvvv@@@@||||;;;;",
"....((((AAAABBBBBB&&&zz&&&&&&&&&&&&&zz&&&&&&&&&Bvvvv@@@@||||;;;;",
"....CCCCDDDDEEEEFF&&&zz&&&&&&&&&&&&&zz&&&&&&&&&EGGGGHHHHIIII;;;;",
"....CCCCDDDDEEEEFF&&&66&&&&JKKKKF&&&66&&&&HHEEEEGGGGHHHHIIII;;;;",
"....CCCCDDDDEEEEFF&&&66&&&&JKKKKF&&&66&&&&HHEEEEGGGGHHHHIIII;;;;",
"....CCCCDDDDEEEEFF&&&66&&&&JKKKKF&&&66&&&&HHEEEEGGGGHHHHIIII;;;;",
"LLLLLLLLLLLLLLLLLLLLLLLLLLLLLLLLLLLLLLLLLLLLLLLLLLLLLLLLLLLLLLLL",
"LLLLLLLLLLLLLLLLLLLLLLLLLLLLLLLLLLLLLLLLLLLLLLLLLLLLLLLLLLLLLLLL",
"LLLLLLLLLLLLLLLLLLLLLLLLLLLLLLLLLLLLLLLLLLLLLLLLLLLLLLLLLLLLLLLL",
"LLLLLLLLLLLLLLLLLLLLLLLLLLLLLLLLLLLLLLLLLLLLLLLLLLLLLLLLLLLLLLLL"};