/* XPM */
static char * wall_xpm[] = {
"64 64 10 1",
" 	c #54330F",
".	c #603B12",
"+	c #361F0C",
"@	c #532F17",
"#	c #5C3419",
"$	c #4B2F18",
"%	c #4A2F18",
"&	c #452C16",
"*	c #54371E",
"=	c #895215",
"      .....................................+++..................",
"  ...........................................+@@@...............",
"  ..............................................+...............",
"  .........+....................................................",
"  ......+@@+.......................@............................",
"  ....@@+#......................+@@@.......................+@@@.",
"  ....+.............+...........+............................++.",
"                   @+                                           ",
"                 @@@                                            ",
"++++++++++++++++++++++++++++++++++++++++++++++++++++++++++++++++",
"++++++++++++++++++++++++++++++++++++++++++++++++++++++++++++++++",
" ........+++++++++++++++++++++++++++++++++++++++++++++++......  ",
".........+++++++++++++++++++++++++++++++++++++++++++++++........",
".........++$##########@%%%%%%&*+%%%%%%%%%%%&&*+++%**%%++.....  .",
"     @@..++$#========##@%%%%%&&*+%%%%%%%%%%%&&**++%***++.....  .",
"     ....++$ =========#@@%%%%%&&**%%%%%%%%%%%&&****+%%++.....   ",
"     ..@.++$+==========##@%%%%%&&&%%%%%%%%%%%%%&&&**++++.....   ",
"     ..@.++$@#==========##@%%%%%%&%%%%%%%%%%%%%%%&&&&%++.....   ",
"     ....++$%@#===+======##@%%%%%%%%%%%%%%%%%%%%%%%&%%++.....   ",
"     ....++$%%@#=====@====##@%%%%%%%%%%%%%%%%%%%%%%%%%++.@...   ",
"     ...@++$$$%@#==========##@%%%%%%%%%%%%%%%%%%%%%%%%++.+...   ",
"     ...+++$$$%%@#==========##@%%%%%%%%%+****++%%%%%%%++.....   ",
"     ....++$$$%%%@#========+=##@%%%%%%%%%&&&&*++%%%%%%++.....   ",
"     ....++$&$%%%@##====+==+==##@%%%%%%%%%%%&&%%%%%%%%++..+..   ",
"     ....++$&&%%%%@##==========##@@%%%%%%%%%%%%%%%%%%%++.....   ",
"     ...@++$+&&%%%%@##==========##@@%%%%%%%%%%%%%%%%%%++.....   ",
"     ..@@++$$+%%%%%%@##==========##@@%%%%%%%%%%%%%%%%%++.....   ",
"      @@.++$$$%%%%%%%@##==========##@@%%%%%%%%&&&&%%%%++.....   ",
"     +...++$$$%%%%%%%&+@#==========##@@%%%%%%%***&&&%%++.....   ",
"     ....++$$$%%&&&&&&+#@#==========##@@%%%%%%++++*&&&++.....   ",
"     ....++$$$&&&+++++%%#@#==========##@@%%%%%%%%+++**++.....   ",
"     ....++$$$++*****%%%%#@#==========##@@%%%%%%%%%+++++...++   ",
"     ....++$$$+**%%%%%%%%%#@#==========##@@%%%%%%%%%%$++....+   ",
"     ....++$$$%%%%%%%%%%%%%#@#==========##@@%%%%%%%%%$++.....   ",
"     ....++$$$%%%%%%%%%%%%%%#@#==========##@@%%%%%%%%$++.....   ",
"     ....++$$$$%%%%%%&&%%%%%%#@#==========##@@%%%%%%%$++.....   ",
"     ....++$$%$%%%+&&&++&%%%%%#@#==========##@@%%%%*%$++.....   ",
"     ...+++$$$$%%%+**&&&&%%%%%%#@#==========##@@%%%+++++.....   ",
"     ...+++$$$$%%%&&&&&%%%%%%%%%#@@==========##@@%%%%$++.....   ",
"     ....++$$$$%%%%%%%%%%%%%%%%%%#@@==========##@@%%%$++.....   ",
"     ....++$$$$%%%%%%%%%%%%%%%%%%%#@@==========##@@%%$++.+...   ",
"     ....++$$$$%%%%%%%%%%%%%%%%%%%%##@==========##@@%$++.+...   ",
"     ....++$$$$%%%%%%%%%%%%%%%%%%%%%%#@==========##@@$++.....   ",
"+    ....++$$$&&%%%%%%%%%%%%%%%%%%%%%%#@==========##@@++.....   ",
"+    ....++$$$&+*%%%%%%%%%%%%%%%+*+%++%#@==========###++.+...   ",
"+    ....++$$&&**%%%%%%%%%%%%++++*+++&%%#@==========##++.+...   ",
"++   ....++$&&+*%%%%%%%%%%%%%&&&%%&&%&%%%#@==========#++.+...   ",
" +    ...++$&+**%%%%%%%%%%%%%%%%%%%%%%%%%%#@=========#++.....   ",
" ++    ..++$+**%%%%%%%%%%%%%%%%%%%%%%%%%%%%#@========#++.....   ",
"  +  .  .++$$*%%%%%%%%%%%%%%%%%%%%%%%%%%%%%%#@=======#++.....   ",
"   + .. .++$$$%%%%%%%%%%%%%%%%%%%%%&&%%%%%%%%#@======#++..... + ",
"   ++.. .++$$$%%%%%%%%%%%%%%%%%%%%&&*****%%%%%#@=====#++....  @ ",
"    ++..+++$$$%%%%%%%%%%%%%%%%%%%%&++++++++%%%%#@====#++.....@@ ",
"     +++++++++++++++++++++++++++++++++++++++++++++++++++++...@  ",
"++++++++++++++++++++++++++++++++++++++++++++++++++++++++++++++++",
"                                 ++                      .....  ",
"                                  +                       ...   ",
"      .......@@@.................@+.........................@+..",
"      +........++................@........................@@@+..",
"      ..........@@..............+@..............................",
"      ...........@..............+.........................@.....",
"      ..........................+...............................",
"     @@+........................................................",
"     @.........................................................."};
