/* XPM */
static char * char0_xpm[] = {
"64 64 77 1",
" 	c #9C9FAE",
".	c #9396A5",
"+	c #9497A6",
"@	c #9095A4",
"#	c #A3A8B9",
"$	c #9FA2B1",
"%	c #9FA2B2",
"&	c #101E29",
"*	c #999FAF",
"=	c #9FA7B8",
"-	c #A1A5B5",
";	c #9799A8",
">	c #F8F8F8",
",	c #9395A4",
"'	c #A4A8B8",
")	c #9FA3B3",
"!	c #A7AEBF",
"~	c #9EA3B2",
"{	c #9EA1B0",
"]	c #A0A5B5",
"^	c #9DA0AF",
"/	c #9A9EAE",
"(	c #9598A7",
"_	c #A5ACBD",
":	c #989DAD",
"<	c #9FA4B3",
"[	c #A1A6B6",
"}	c #9AA1B1",
"|	c #9AA0B0",
"1	c #A2A8B8",
"2	c #A9B1C3",
"3	c #ADB2C2",
"4	c #ABAEBE",
"5	c #A4ACBD",
"6	c #EDA579",
"7	c #9698A7",
"8	c #999EAE",
"9	c #9FA6B7",
"0	c #9699A8",
"a	c #9498A8",
"b	c #A1A7B7",
"c	c #A5ABBB",
"d	c #A3A9B9",
"e	c #9B9FAF",
"f	c #8E92A1",
"g	c #D17360",
"h	c #B2BACC",
"i	c #A3AABB",
"j	c #A4ABBC",
"k	c #9EA6B7",
"l	c #A0A5B4",
"m	c #9AD47D",
"n	c #9CA1B2",
"o	c #9DA3B3",
"p	c #A6ABBC",
"q	c #989BAA",
"r	c #038FCD",
"s	c #999FAE",
"t	c #A0A4B3",
"u	c #9EA5B6",
"v	c #989CAC",
"w	c #4B9620",
"x	c #9399A8",
"y	c #B0B7C8",
"z	c #0763D0",
"A	c #9EA1B1",
"B	c #989CAB",
"C	c #8E91A0",
"D	c #9AA2B2",
"E	c #9094A3",
"F	c #969BAA",
"G	c #989EAE",
"H	c #9399A9",
"I	c #9196A5",
"J	c #959BAB",
"K	c #9497A5",
"L	c #B1B8C9",
"    ........................................................    ",
"    ........................................................    ",
"    ........................................................    ",
"    ........................................................    ",
"++++@@@@####$$$$%%%%$$&&&&&&****$$$$%&&&&&&%$$$$====----;;;;....",
"++++@@@@####$$$$%%%%$$&&&&&&****$$$$%&&&&&&%$$$$====----;;;;....",
"++++@@@@####$$$$%%%%$$&&&&&&****$$$$%&&&&&&%$$$$====----;;;;....",
"++++@@@@####$$$$%%%%&&>>>>>>&&&*$$$&&>>>>>>&&&$$====----;;;;....",
"++++,,,,''''))))!!!!&&>>>>>>&&&~{{{&&>>>>>>&&&'']]]]^^^^////....",
"++++,,,,''''))))!!!!&&>>>>>>&&&~{{{&&>>>>>>&&&'']]]]^^^^////....",
"++++,,,,''''))))!!!!&&>>>>>>&&&&&&&&&>>>>>>&&&'']]]]^^^^////....",
"++++,,,,''''))))!!!!&&>>>>>>&&&&&&&&&>>>>>>&&&'']]]]^^^^////....",
"++++((((____::::<<<<&&>>>>>>&&&&&&&&&>>>>>>&&&[[))))}}}}||||....",
"++++((((____::::<&&&>>>>>>>>>>>>>>>>>>>>>>>>>>&&&)))}}}}||||....",
"++++((((____::::<&&&>>>>>>>>>>>>>>>>>>>>>>>>>>&&&)))}}}}||||....",
"++++((((____::::<&&&>>>>>>>>>>>>>>>>>>>>>>>>>>>>>&&&}}}}||||....",
"++++1111222233334&&&>>>>>>>>>>>>>>>>>>>>>>>>>>>>>&&&5555$$$$....",
"++++1111222233334&&&>>>>>>>>>>>>>>>>>>>>>>>>>>>>>&&&5555$$$$....",
"++++1111222233334&&&>>>>>>>>>>>>>>>>>>>>>>>>>>>>>&&&5555$$$$....",
"++++1111222233334&&&>>>>>>>>666666666666666666>>>&&&5555$$$$....",
"++++77778888[[[[$&&&>>>>>>>>666666666666666666>>>&&&99990000....",
"++++77778888[[[[$&&&>>>>>>66666666666666666666666&&&99990000....",
"++++77778888[[[[$&&&>>>>>>66666666666666666666666&&&99990000....",
"++++77778888[[[[$&&&>>>>>>66666666666666666666666&&&99990000....",
"++++aaaabbbbccccc&&&>>>>>>66666666666666666666666&&&ddddeeee....",
"++++aaaabbbbccccc&&&>>>>>>66666&&&&66666666&&&666&&&ddddeeee....",
"++++aaaabbbbccccc&&&>>>>>>66666&&&&66666666&&&666&&&ddddeeee....",
"++++aaaabbbbccccc&&&>>>>>>66666&&&&66666666&&&666&&&ddddeeee....",
"++++ffff1111{{{{d&&&>>>>>>66ggg&&&&66666666&&&ggg&&&{{{{0000....",
"++++ffff1111{{{{d&&&>>>>>>66ggg&&&&66666666&&&ggg&&&{{{{0000....",
"++++ffff1111{{{{d&&&>>>>>>66666666666666666666666&&&{{{{0000....",
"++++ffff1111{{{{d&&&>>>>>>66666666666666666666666&&&{{{{0000....",
"++++{{{{hhhhiiii3&&&>>>>>>66666666666666666666666&&&jjjj____....",
"++++{{{{hhhhiiii3&&&>>>>>>66666666666666666666666&&&jjjj____....",
"++++{{{{hhhhiiii3&&&>>>>>>>>666666666666666666>>>&&&jjjj____....",
"++++{{{{hhhhiiii3&&&>>>>>>>>666666666666666666>>>&&&jjjj____....",
"++++((((kkkkll&&&&&&>>>>>>>>>>>>>>>>>>>>>>>>>>>>>&&&}}}}0000....",
"++++((((kkkkll&&&&&&>>>>>>>>>>>>>>>>>>>>>>>>>>>>>&&&}}}}0000....",
"++++((((kkkkll&&&&&&>>>>>>>>>>>>>>>>>>>>>>>>>>>>>&&&}}}}0000....",
"++++((((kkk&&&mmmmmm&&&&&&&&&&&&&&&&&&&&&&&&&&&&&---}}}}0000....",
"++++nnnnooo&&&mmmmmm&&&&&&&&&&&&&&&&&&&&&&&&&&&&&pppooooqqqq....",
"++++nnnnooo&&&mmmmmm&&&&&&&&&&&&&&&&&&&&&&&&&&&&&pppooooqqqq....",
"++++nnnnooo&&&mmm&&&rrrrrrrrmmmrrrrrrrrrrmm&&&&&&pppooooqqqq....",
"++++nnnnooo&&&mmm&&&rrrrrrrrmmmrrrrrrrrrrmm&&&&&&pppooooqqqq....",
"++++((((sss&&&mmm&&&rrrrrrrrmmmrrrrrrrrrrmm&&&&&&tttuuuuvvvv....",
"++++((((sss&&&www&&&666666&&wwwrrrrrrrrrrww&&&666&&&uuuuvvvv....",
"++++((((sss&&&www&&&666666&&wwwrrrrrrrrrrww&&&666&&&uuuuvvvv....",
"++++((((sss&&&www&&&666666&&wwwrrrrrrrrrrww&&&666&&&uuuuvvvv....",
"++++xxxxyyy&&&www&&&666666&&wwwrrrrrrrrrrww&&&666&&&3333$$$$....",
"++++xxxxyyy&&&www&&&666666&&wwwrrrrrrrrrrww&&&666&&&3333$$$$....",
"++++xxxxyyy&&&www&&&666666&&wwwrrrrrrrrrrww&&&666&&&3333$$$$....",
"++++xxxxyyyy44&&&www&&&&&&zzzzzzzzzzzzzzzzz&&&&&&2223333$$$$....",
"++++((((----ss&&&www&&&&&&zzzzzzzzzzzzzzzzz&&&&&&AAABBBB||||....",
"++++((((----ss&&&www&&&&&&zzzzzzzzzzzzzzzzz&&&&&&AAABBBB||||....",
"++++((((----ssssA&&&&&&&&&zz&&&&&&&&&&&&&zz&&&AAAAAABBBB||||....",
"++++((((----ssssA&&&&&&&&&zz&&&&&&&&&&&&&zz&&&AAAAAABBBB||||....",
"++++CCCCDDDDEEEEF&&&&&&&&&zz&&&&&&&&&&&&&zz&&&GGFFFFHHHHIIII....",
"++++CCCCDDDDEEEEFFFFDD&&&&66&&&GJJJJK&&&&66&&&GGFFFFHHHHIIII....",
"++++CCCCDDDDEEEEFFFFDD&&&&66&&&GJJJJK&&&&66&&&GGFFFFHHHHIIII....",
"++++CCCCDDDDEEEEFFFFDD&&&&66&&&GJJJJK&&&&66&&&GGFFFFHHHHIIII....",
"LLLLLLLLLLLLLLLLLLLLLLLLLLLLLLLLLLLLLLLLLLLLLLLLLLLLLLLLLLLLLLLL",
"LLLLLLLLLLLLLLLLLLLLLLLLLLLLLLLLLLLLLLLLLLLLLLLLLLLLLLLLLLLLLLLL",
"LLLLLLLLLLLLLLLLLLLLLLLLLLLLLLLLLLLLLLLLLLLLLLLLLLLLLLLLLLLLLLLL",
"LLLLLLLLLLLLLLLLLLLLLLLLLLLLLLLLLLLLLLLLLLLLLLLLLLLLLLLLLLLLLLLL"};
